<svg width="392" height="32" viewBox="0 0 392 32" fill="none" xmlns="http://www.w3.org/2000/svg">
<path d="M390.22 15.7684C390.22 23.6062 383.866 29.9599 376.028 29.9599C368.19 29.9599 361.836 23.6062 361.836 15.7684C361.836 7.93055 368.19 1.57693 376.028 1.57693C383.866 1.57693 390.22 7.93055 390.22 15.7684ZM391.796 15.7684C391.796 7.05982 384.737 0 376.028 0C367.319 0 360.26 7.05982 360.26 15.7684C360.26 24.4768 367.319 31.5368 376.028 31.5368C384.737 31.5368 391.796 24.4768 391.796 15.7684Z" fill="black"/>
<path d="M347.585 15.7684C347.585 22.9243 341.784 28.7261 334.628 28.7261C327.472 28.7261 321.671 22.9243 321.671 15.7684C321.671 8.61232 327.472 2.81053 334.628 2.81053C341.784 2.81053 347.585 8.61232 347.585 15.7684ZM349.025 15.7684C349.025 7.81715 342.579 1.37105 334.628 1.37105C326.677 1.37105 320.231 7.81715 320.231 15.7684C320.231 23.7196 326.677 30.1656 334.628 30.1656C342.579 30.1656 349.025 23.7196 349.025 15.7684Z" fill="black"/>
<path d="M304.951 15.7684C304.951 22.2433 299.703 27.4915 293.228 27.4915C286.753 27.4915 281.505 22.2433 281.505 15.7684C281.505 9.29335 286.753 4.04507 293.228 4.04507C299.703 4.04507 304.951 9.29335 304.951 15.7684ZM306.254 15.7684C306.254 8.57431 300.422 2.74225 293.228 2.74225C286.034 2.74225 280.202 8.57431 280.202 15.7684C280.202 22.9625 286.034 28.7945 293.228 28.7945C300.422 28.7945 306.254 22.9625 306.254 15.7684Z" fill="black"/>
<path d="M262.318 15.7684C262.318 21.5615 257.621 26.258 251.828 26.258C246.035 26.258 241.338 21.5615 241.338 15.7684C241.338 9.97529 246.035 5.27883 251.828 5.27883C257.621 5.27883 262.318 9.97529 262.318 15.7684ZM263.483 15.7684C263.483 9.33152 258.265 4.11346 251.828 4.11346C245.391 4.11346 240.173 9.33152 240.173 15.7684C240.173 22.2053 245.391 27.4233 251.828 27.4233C258.265 27.4233 263.483 22.2053 263.483 15.7684Z" fill="black"/>
<path d="M219.683 15.7684C219.683 20.88 215.54 25.0237 210.428 25.0237C205.316 25.0237 201.173 20.88 201.173 15.7684C201.173 10.6568 205.316 6.51289 210.428 6.51289C215.54 6.51289 219.683 10.6568 219.683 15.7684ZM220.712 15.7684C220.712 10.0887 216.108 5.48455 210.428 5.48455C204.748 5.48455 200.144 10.0887 200.144 15.7684C200.144 21.4479 204.748 26.0521 210.428 26.0521C216.108 26.0521 220.712 21.4479 220.712 15.7684Z" fill="black"/>
<path d="M177.049 15.7684C177.049 20.1982 173.458 23.7896 169.028 23.7896C164.598 23.7896 161.007 20.1982 161.007 15.7684C161.007 11.3386 164.598 7.74714 169.028 7.74714C173.458 7.74714 177.049 11.3386 177.049 15.7684ZM177.941 15.7684C177.941 10.8458 173.95 6.85576 169.028 6.85576C164.105 6.85576 160.115 10.8458 160.115 15.7684C160.115 20.6908 164.105 24.681 169.028 24.681C173.95 24.681 177.941 20.6908 177.941 15.7684Z" fill="black"/>
<path d="M134.415 15.7684C134.415 19.5172 131.377 22.5559 127.628 22.5559C123.879 22.5559 120.84 19.5172 120.84 15.7684C120.84 12.0196 123.879 8.98091 127.628 8.98091C131.377 8.98091 134.415 12.0196 134.415 15.7684ZM135.169 15.7684C135.169 11.6032 131.793 8.22697 127.628 8.22697C123.463 8.22697 120.087 11.6032 120.087 15.7684C120.087 19.9336 123.463 23.3098 127.628 23.3098C131.793 23.3098 135.169 19.9336 135.169 15.7684Z" fill="black"/>
<path d="M91.7814 15.7684C91.7814 18.8352 89.2949 21.3218 86.228 21.3218C83.161 21.3218 80.6746 18.8352 80.6746 15.7684C80.6746 12.7014 83.161 10.215 86.228 10.215C89.2949 10.215 91.7814 12.7014 91.7814 15.7684ZM92.3982 15.7684C92.3982 12.3606 89.6356 9.59818 86.228 9.59818C82.8203 9.59818 80.0577 12.3606 80.0577 15.7684C80.0577 19.176 82.8203 21.9386 86.228 21.9386C89.6356 21.9386 92.3982 19.176 92.3982 15.7684Z" fill="black"/>
<path d="M49.1472 15.7684C49.1472 18.1539 47.2135 20.0876 44.828 20.0876C42.4425 20.0876 40.5087 18.1539 40.5087 15.7684C40.5087 13.3829 42.4425 11.449 44.828 11.449C47.2135 11.449 49.1472 13.3829 49.1472 15.7684ZM49.6271 15.7684C49.6271 13.118 47.4784 10.9692 44.828 10.9692C42.1776 10.9692 40.0289 13.118 40.0289 15.7684C40.0289 18.4188 42.1776 20.5674 44.828 20.5674C47.4784 20.5674 49.6271 18.4188 49.6271 15.7684Z" fill="black"/>
<path d="M6.51309 15.7684C6.51309 17.4719 5.13159 18.8535 3.42798 18.8535C1.72437 18.8535 0.342865 17.4719 0.342865 15.7684C0.342865 14.0647 1.72437 12.6833 3.42798 12.6833C5.13159 12.6833 6.51309 14.0647 6.51309 15.7684ZM6.8559 15.7684C6.8559 13.8752 5.3212 12.3404 3.42798 12.3404C1.53476 12.3404 6.10352e-05 13.8752 6.10352e-05 15.7684C6.10352e-05 17.6616 1.53476 19.1964 3.42798 19.1964C5.3212 19.1964 6.8559 17.6616 6.8559 15.7684Z" fill="black"/>
<path d="M347.585 15.7684C347.585 22.9243 341.784 28.7261 334.628 28.7261C327.472 28.7261 321.671 22.9243 321.671 15.7684C321.671 8.61232 327.472 2.81053 334.628 2.81053C341.784 2.81053 347.585 8.61232 347.585 15.7684Z" fill="black"/>
<path d="M390.22 15.7684C390.22 23.6062 383.866 29.9599 376.028 29.9599C368.19 29.9599 361.836 23.6062 361.836 15.7684C361.836 7.93055 368.19 1.57693 376.028 1.57693C383.866 1.57693 390.22 7.93055 390.22 15.7684Z" fill="black"/>
<path d="M304.951 15.7684C304.951 22.2433 299.703 27.4915 293.228 27.4915C286.753 27.4915 281.505 22.2433 281.505 15.7684C281.505 9.29335 286.753 4.04507 293.228 4.04507C299.703 4.04507 304.951 9.29335 304.951 15.7684Z" fill="black"/>
<path d="M262.318 15.7684C262.318 21.5615 257.621 26.258 251.828 26.258C246.035 26.258 241.338 21.5615 241.338 15.7684C241.338 9.97529 246.035 5.27883 251.828 5.27883C257.621 5.27883 262.318 9.97529 262.318 15.7684Z" fill="black"/>
<path d="M219.683 15.7684C219.683 20.88 215.54 25.0237 210.428 25.0237C205.316 25.0237 201.173 20.88 201.173 15.7684C201.173 10.6568 205.316 6.51289 210.428 6.51289C215.54 6.51289 219.683 10.6568 219.683 15.7684Z" fill="black"/>
<path d="M177.049 15.7684C177.049 20.1982 173.458 23.7896 169.028 23.7896C164.598 23.7896 161.007 20.1982 161.007 15.7684C161.007 11.3386 164.598 7.74714 169.028 7.74714C173.458 7.74714 177.049 11.3386 177.049 15.7684Z" fill="black"/>
<path d="M134.415 15.7684C134.415 19.5172 131.377 22.5559 127.628 22.5559C123.879 22.5559 120.84 19.5172 120.84 15.7684C120.84 12.0196 123.879 8.98091 127.628 8.98091C131.377 8.98091 134.415 12.0196 134.415 15.7684Z" fill="black"/>
<path d="M91.7814 15.7684C91.7814 18.8352 89.2949 21.3218 86.228 21.3218C83.161 21.3218 80.6746 18.8352 80.6746 15.7684C80.6746 12.7014 83.161 10.215 86.228 10.215C89.2949 10.215 91.7814 12.7014 91.7814 15.7684Z" fill="black"/>
<path d="M6.51309 15.7684C6.51309 17.4719 5.13159 18.8535 3.42798 18.8535C1.72437 18.8535 0.342865 17.4719 0.342865 15.7684C0.342865 14.0647 1.72437 12.6833 3.42798 12.6833C5.13159 12.6833 6.51309 14.0647 6.51309 15.7684Z" fill="black"/>
<path d="M49.1472 15.7684C49.1472 18.1539 47.2135 20.0876 44.828 20.0876C42.4425 20.0876 40.5087 18.1539 40.5087 15.7684C40.5087 13.3829 42.4425 11.449 44.828 11.449C47.2135 11.449 49.1472 13.3829 49.1472 15.7684Z" fill="black"/>
</svg>
