<svg width="414" height="414" viewBox="0 0 414 414" fill="none" xmlns="http://www.w3.org/2000/svg">
<g clip-path="url(#clip0_30_1912)">
<path d="M17.6148 20.7C17.6148 22.404 18.996 23.7851 20.6999 23.7851C22.4037 23.7851 23.785 22.404 23.785 20.7C23.785 18.996 22.4037 17.6149 20.6999 17.6149C18.996 17.6149 17.6148 18.996 17.6148 20.7ZM17.2721 20.7C17.2721 18.8068 18.8068 17.2721 20.6999 17.2721C22.593 17.2721 24.1277 18.8068 24.1277 20.7C24.1277 22.5932 22.593 24.1279 20.6999 24.1279C18.8068 24.1279 17.2721 22.5932 17.2721 20.7Z" fill="black"/>
<path d="M16.3809 62.1001C16.3809 64.4856 18.3145 66.4194 20.6999 66.4194C23.0852 66.4194 25.0189 64.4856 25.0189 62.1001C25.0189 59.7146 23.0852 57.7808 20.6999 57.7808C18.3145 57.7808 16.3809 59.7146 16.3809 62.1001ZM15.9009 62.1001C15.9009 59.4497 18.0495 57.301 20.6999 57.301C23.3503 57.301 25.4989 59.4497 25.4989 62.1001C25.4989 64.7505 23.3503 66.8992 20.6999 66.8992C18.0495 66.8992 15.9009 64.7505 15.9009 62.1001Z" fill="black"/>
<path d="M15.1467 103.5C15.1467 106.567 17.633 109.053 20.7 109.053C23.767 109.053 26.2533 106.567 26.2533 103.5C26.2533 100.433 23.767 97.9466 20.7 97.9466C17.633 97.9466 15.1467 100.433 15.1467 103.5ZM14.5298 103.5C14.5298 100.092 17.2923 97.3298 20.7 97.3298C24.1078 97.3298 26.8702 100.092 26.8702 103.5C26.8702 106.908 24.1078 109.67 20.7 109.67C17.2923 109.67 14.5298 106.908 14.5298 103.5Z" fill="black"/>
<path d="M13.9126 144.9C13.9126 148.648 16.9515 151.688 20.7 151.688C24.4484 151.688 27.4873 148.648 27.4873 144.9C27.4873 141.152 24.4484 138.112 20.7 138.112C16.9515 138.112 13.9126 141.152 13.9126 144.9ZM13.1587 144.9C13.1587 140.735 16.5349 137.359 20.7 137.359C24.865 137.359 28.2412 140.735 28.2412 144.9C28.2412 149.065 24.865 152.441 20.7 152.441C16.5349 152.441 13.1587 149.065 13.1587 144.9Z" fill="black"/>
<path d="M12.6787 186.3C12.6787 190.73 16.2698 194.321 20.6999 194.321C25.1301 194.321 28.7212 190.73 28.7212 186.3C28.7212 181.87 25.1301 178.279 20.6999 178.279C16.2698 178.279 12.6787 181.87 12.6787 186.3ZM11.7875 186.3C11.7875 181.378 15.7777 177.387 20.6999 177.387C25.6222 177.387 29.6124 181.378 29.6124 186.3C29.6124 191.223 25.6222 195.213 20.6999 195.213C15.7777 195.213 11.7875 191.223 11.7875 186.3Z" fill="black"/>
<path d="M11.4446 227.7C11.4446 232.812 15.5883 236.955 20.6999 236.955C25.8116 236.955 29.9553 232.812 29.9553 227.7C29.9553 222.588 25.8116 218.445 20.6999 218.445C15.5883 218.445 11.4446 222.588 11.4446 227.7ZM10.4163 227.7C10.4163 222.02 15.0204 217.416 20.6999 217.416C26.3795 217.416 30.9836 222.02 30.9836 227.7C30.9836 233.38 26.3795 237.984 20.6999 237.984C15.0204 237.984 10.4163 233.38 10.4163 227.7Z" fill="black"/>
<path d="M10.2106 269.1C10.2106 274.893 14.9067 279.59 20.7 279.59C26.4932 279.59 31.1894 274.893 31.1894 269.1C31.1894 263.307 26.4932 258.611 20.7 258.611C14.9067 258.611 10.2106 263.307 10.2106 269.1ZM9.04504 269.1C9.04504 262.663 14.2631 257.445 20.7 257.445C27.1368 257.445 32.3549 262.663 32.3549 269.1C32.3549 275.537 27.1368 280.755 20.7 280.755C14.2631 280.755 9.04504 275.537 9.04504 269.1Z" fill="black"/>
<path d="M8.97648 310.5C8.97648 316.975 14.2254 322.223 20.7 322.223C27.1746 322.223 32.4235 316.975 32.4235 310.5C32.4235 304.025 27.1746 298.777 20.7 298.777C14.2254 298.777 8.97648 304.025 8.97648 310.5ZM7.67383 310.5C7.67383 303.306 13.5059 297.474 20.7 297.474C27.894 297.474 33.7261 303.306 33.7261 310.5C33.7261 317.694 27.894 323.526 20.7 323.526C13.5059 323.526 7.67383 317.694 7.67383 310.5Z" fill="black"/>
<path d="M7.74238 351.9C7.74238 359.056 13.5437 364.858 20.6999 364.858C27.8561 364.858 33.6575 359.056 33.6575 351.9C33.6575 344.744 27.8561 338.942 20.6999 338.942C13.5437 338.942 7.74238 344.744 7.74238 351.9ZM6.30273 351.9C6.30273 343.949 12.7485 337.503 20.6999 337.503C28.6513 337.503 35.0971 343.949 35.0971 351.9C35.0971 359.851 28.6513 366.297 20.6999 366.297C12.7485 366.297 6.30273 359.851 6.30273 351.9Z" fill="black"/>
<path d="M6.50828 393.3C6.50828 401.138 12.8622 407.492 20.6999 407.492C28.5376 407.492 34.8915 401.138 34.8915 393.3C34.8915 385.462 28.5376 379.109 20.6999 379.109C12.8622 379.109 6.50828 385.462 6.50828 393.3ZM4.93152 393.3C4.93152 384.592 11.9912 377.532 20.6999 377.532C29.4086 377.532 36.4683 384.592 36.4683 393.3C36.4683 402.008 29.4086 409.068 20.6999 409.068C11.9912 409.068 4.93152 402.008 4.93152 393.3Z" fill="black"/>
<path d="M59.2831 20.7C59.2831 22.2558 60.5441 23.5169 62.0999 23.5169C63.6557 23.5169 64.9168 22.2558 64.9168 20.7C64.9168 19.1442 63.6557 17.8832 62.0999 17.8832C60.5441 17.8832 59.2831 19.1442 59.2831 20.7ZM58.9701 20.7C58.9701 18.9716 60.3715 17.5702 62.0999 17.5702C63.8284 17.5702 65.2298 18.9716 65.2298 20.7C65.2298 22.4285 63.8284 23.8298 62.0999 23.8298C60.3715 23.8298 58.9701 22.4285 58.9701 20.7Z" fill="black"/>
<path d="M58.1566 62.1C58.1566 64.2781 59.9219 66.0434 62.0999 66.0434C64.278 66.0434 66.0433 64.2781 66.0433 62.1C66.0433 59.922 64.278 58.1567 62.0999 58.1567C59.9219 58.1567 58.1566 59.922 58.1566 62.1ZM57.7181 62.1C57.7181 59.6802 59.6801 57.7183 62.0999 57.7183C64.5197 57.7183 66.4817 59.6802 66.4817 62.1C66.4817 64.5199 64.5197 66.4818 62.0999 66.4818C59.6801 66.4818 57.7181 64.5199 57.7181 62.1Z" fill="black"/>
<path d="M57.0296 103.5C57.0296 106.3 59.2996 108.57 62.0999 108.57C64.9002 108.57 67.1702 106.3 67.1702 103.5C67.1702 100.7 64.9002 98.4298 62.0999 98.4298C59.2996 98.4298 57.0296 100.7 57.0296 103.5ZM56.4662 103.5C56.4662 100.388 58.9883 97.8664 62.0999 97.8664C65.2115 97.8664 67.7336 100.388 67.7336 103.5C67.7336 106.612 65.2115 109.134 62.0999 109.134C58.9883 109.134 56.4662 106.612 56.4662 103.5Z" fill="black"/>
<path d="M55.9028 144.9C55.9028 148.323 58.6775 151.097 62.1 151.097C65.5225 151.097 68.2972 148.323 68.2972 144.9C68.2972 141.477 65.5225 138.703 62.1 138.703C58.6775 138.703 55.9028 141.477 55.9028 144.9ZM55.2144 144.9C55.2144 141.097 58.297 138.014 62.1 138.014C65.903 138.014 68.9856 141.097 68.9856 144.9C68.9856 148.703 65.903 151.786 62.1 151.786C58.297 151.786 55.2144 148.703 55.2144 144.9Z" fill="black"/>
<path d="M54.7763 186.3C54.7763 190.345 58.0552 193.624 62.1 193.624C66.1448 193.624 69.4236 190.345 69.4236 186.3C69.4236 182.255 66.1448 178.976 62.1 178.976C58.0552 178.976 54.7763 182.255 54.7763 186.3ZM53.9624 186.3C53.9624 181.806 57.606 178.162 62.1 178.162C66.594 178.162 70.2376 181.806 70.2376 186.3C70.2376 190.794 66.594 194.438 62.1 194.438C57.606 194.438 53.9624 190.794 53.9624 186.3Z" fill="black"/>
<path d="M53.6494 227.7C53.6494 232.367 57.4329 236.151 62.1 236.151C66.767 236.151 70.5505 232.367 70.5505 227.7C70.5505 223.033 66.767 219.25 62.1 219.25C57.4329 219.25 53.6494 223.033 53.6494 227.7ZM52.7104 227.7C52.7104 222.515 56.9142 218.311 62.1 218.311C67.2857 218.311 71.4895 222.515 71.4895 227.7C71.4895 232.885 67.2857 237.09 62.1 237.09C56.9142 237.09 52.7104 232.885 52.7104 227.7Z" fill="black"/>
<path d="M52.5225 269.1C52.5225 274.389 56.8107 278.677 62.1 278.677C67.3892 278.677 71.6774 274.389 71.6774 269.1C71.6774 263.811 67.3892 259.523 62.1 259.523C56.8107 259.523 52.5225 263.811 52.5225 269.1ZM51.4585 269.1C51.4585 263.223 56.2228 258.459 62.1 258.459C67.9771 258.459 72.7414 263.223 72.7414 269.1C72.7414 274.977 67.9771 279.741 62.1 279.741C56.2228 279.741 51.4585 274.977 51.4585 269.1Z" fill="black"/>
<path d="M51.396 310.5C51.396 316.412 56.1884 321.204 62.0999 321.204C68.0114 321.204 72.8039 316.412 72.8039 310.5C72.8039 304.589 68.0114 299.796 62.0999 299.796C56.1884 299.796 51.396 304.589 51.396 310.5ZM50.2065 310.5C50.2065 303.932 55.5314 298.607 62.0999 298.607C68.6685 298.607 73.9933 303.932 73.9933 310.5C73.9933 317.069 68.6685 322.393 62.0999 322.393C55.5314 322.393 50.2065 317.069 50.2065 310.5Z" fill="black"/>
<path d="M50.269 351.9C50.269 358.434 55.5658 363.731 62.0999 363.731C68.6341 363.731 73.9308 358.434 73.9308 351.9C73.9308 345.366 68.6341 340.069 62.0999 340.069C55.5658 340.069 50.269 345.366 50.269 351.9ZM48.9546 351.9C48.9546 344.64 54.84 338.755 62.0999 338.755C69.3598 338.755 75.2452 344.64 75.2452 351.9C75.2452 359.16 69.3598 365.045 62.0999 365.045C54.84 365.045 48.9546 359.16 48.9546 351.9Z" fill="black"/>
<path d="M49.1425 393.3C49.1425 400.456 54.9435 406.258 62.0999 406.258C69.2563 406.258 75.0573 400.456 75.0573 393.3C75.0573 386.144 69.2563 380.342 62.0999 380.342C54.9435 380.342 49.1425 386.144 49.1425 393.3ZM47.7026 393.3C47.7026 385.349 54.1486 378.903 62.0999 378.903C70.0512 378.903 76.4972 385.349 76.4972 393.3C76.4972 401.251 70.0512 407.697 62.0999 407.697C54.1486 407.697 47.7026 401.251 47.7026 393.3Z" fill="black"/>
<path d="M100.951 20.7001C100.951 22.1077 102.092 23.2487 103.5 23.2487C104.908 23.2487 106.049 22.1077 106.049 20.7001C106.049 19.2925 104.908 18.1515 103.5 18.1515C102.092 18.1515 100.951 19.2925 100.951 20.7001ZM100.668 20.7001C100.668 19.136 101.936 17.8683 103.5 17.8683C105.064 17.8683 106.332 19.136 106.332 20.7001C106.332 22.2642 105.064 23.5319 103.5 23.5319C101.936 23.5319 100.668 22.2642 100.668 20.7001Z" fill="black"/>
<path d="M99.9321 62.1C99.9321 64.0706 101.529 65.6678 103.5 65.6678C105.471 65.6678 107.068 64.0706 107.068 62.1C107.068 60.1294 105.471 58.5322 103.5 58.5322C101.529 58.5322 99.9321 60.1294 99.9321 62.1ZM99.5355 62.1C99.5355 59.9104 101.31 58.1355 103.5 58.1355C105.69 58.1355 107.464 59.9104 107.464 62.1C107.464 64.2896 105.69 66.0645 103.5 66.0645C101.31 66.0645 99.5355 64.2896 99.5355 62.1Z" fill="black"/>
<path d="M98.9125 103.5C98.9125 106.034 100.966 108.088 103.5 108.088C106.034 108.088 108.088 106.034 108.088 103.5C108.088 100.966 106.034 98.9125 103.5 98.9125C100.966 98.9125 98.9125 100.966 98.9125 103.5ZM98.4028 103.5C98.4028 100.685 100.685 98.4028 103.5 98.4028C106.315 98.4028 108.597 100.685 108.597 103.5C108.597 106.315 106.315 108.597 103.5 108.597C100.685 108.597 98.4028 106.315 98.4028 103.5Z" fill="black"/>
<path d="M97.8931 144.9C97.8931 147.996 100.404 150.507 103.5 150.507C106.596 150.507 109.107 147.996 109.107 144.9C109.107 141.804 106.596 139.293 103.5 139.293C100.404 139.293 97.8931 141.804 97.8931 144.9ZM97.27 144.9C97.27 141.459 100.059 138.67 103.5 138.67C106.941 138.67 109.73 141.459 109.73 144.9C109.73 148.341 106.941 151.13 103.5 151.13C100.059 151.13 97.27 148.341 97.27 144.9Z" fill="black"/>
<path d="M96.8738 186.3C96.8738 189.96 99.8401 192.927 103.5 192.927C107.16 192.927 110.126 189.96 110.126 186.3C110.126 182.64 107.16 179.674 103.5 179.674C99.8401 179.674 96.8738 182.64 96.8738 186.3ZM96.1373 186.3C96.1373 182.234 99.4336 178.937 103.5 178.937C107.566 178.937 110.862 182.234 110.862 186.3C110.862 190.366 107.566 193.663 103.5 193.663C99.4336 193.663 96.1373 190.366 96.1373 186.3Z" fill="black"/>
<path d="M95.8542 227.7C95.8542 231.922 99.2771 235.346 103.5 235.346C107.723 235.346 111.146 231.922 111.146 227.7C111.146 223.478 107.723 220.054 103.5 220.054C99.2771 220.054 95.8542 223.478 95.8542 227.7ZM95.0046 227.7C95.0046 223.008 98.8081 219.205 103.5 219.205C108.192 219.205 111.995 223.008 111.995 227.7C111.995 232.392 108.192 236.195 103.5 236.195C98.8081 236.195 95.0046 232.392 95.0046 227.7Z" fill="black"/>
<path d="M94.8349 269.1C94.8349 273.886 98.7141 277.765 103.5 277.765C108.286 277.765 112.165 273.886 112.165 269.1C112.165 264.314 108.286 260.435 103.5 260.435C98.7141 260.435 94.8349 264.314 94.8349 269.1ZM93.8719 269.1C93.8719 263.783 98.1825 259.472 103.5 259.472C108.817 259.472 113.128 263.783 113.128 269.1C113.128 274.417 108.817 278.728 103.5 278.728C98.1825 278.728 93.8719 274.417 93.8719 269.1Z" fill="black"/>
<path d="M93.8152 310.5C93.8152 315.849 98.1515 320.185 103.5 320.185C108.848 320.185 113.185 315.849 113.185 310.5C113.185 305.151 108.848 300.815 103.5 300.815C98.1515 300.815 93.8152 305.151 93.8152 310.5ZM92.7393 310.5C92.7393 304.557 97.557 299.739 103.5 299.739C109.443 299.739 114.261 304.557 114.261 310.5C114.261 316.443 109.443 321.261 103.5 321.261C97.557 321.261 92.7393 316.443 92.7393 310.5Z" fill="black"/>
<path d="M92.796 351.9C92.796 357.812 97.5885 362.604 103.5 362.604C109.411 362.604 114.204 357.812 114.204 351.9C114.204 345.989 109.411 341.196 103.5 341.196C97.5885 341.196 92.796 345.989 92.796 351.9ZM91.6066 351.9C91.6066 345.332 96.9314 340.007 103.5 340.007C110.068 340.007 115.393 345.332 115.393 351.9C115.393 358.469 110.068 363.793 103.5 363.793C96.9314 363.793 91.6066 358.469 91.6066 351.9Z" fill="black"/>
<path d="M91.7767 393.3C91.7767 399.775 97.0254 405.023 103.5 405.023C109.975 405.023 115.223 399.775 115.223 393.3C115.223 386.825 109.975 381.577 103.5 381.577C97.0254 381.577 91.7767 386.825 91.7767 393.3ZM90.4739 393.3C90.4739 386.106 96.3059 380.274 103.5 380.274C110.694 380.274 116.526 386.106 116.526 393.3C116.526 400.494 110.694 406.326 103.5 406.326C96.3059 406.326 90.4739 400.494 90.4739 393.3Z" fill="black"/>
<path d="M142.62 20.7C142.62 21.9593 143.641 22.9803 144.9 22.9803C146.159 22.9803 147.18 21.9593 147.18 20.7C147.18 19.4406 146.159 18.4196 144.9 18.4196C143.641 18.4196 142.62 19.4406 142.62 20.7ZM142.366 20.7C142.366 19.3006 143.501 18.1663 144.9 18.1663C146.299 18.1663 147.434 19.3006 147.434 20.7C147.434 22.0993 146.299 23.2336 144.9 23.2336C143.501 23.2336 142.366 22.0993 142.366 20.7Z" fill="black"/>
<path d="M141.708 62.1001C141.708 63.8633 143.137 65.2924 144.9 65.2924C146.663 65.2924 148.092 63.8633 148.092 62.1001C148.092 60.3369 146.663 58.9077 144.9 58.9077C143.137 58.9077 141.708 60.3369 141.708 62.1001ZM141.353 62.1001C141.353 60.141 142.941 58.5529 144.9 58.5529C146.859 58.5529 148.447 60.141 148.447 62.1001C148.447 64.0591 146.859 65.6472 144.9 65.6472C142.941 65.6472 141.353 64.0591 141.353 62.1001Z" fill="black"/>
<path d="M140.796 103.5C140.796 105.767 142.633 107.605 144.9 107.605C147.167 107.605 149.004 105.767 149.004 103.5C149.004 101.233 147.167 99.3952 144.9 99.3952C142.633 99.3952 140.796 101.233 140.796 103.5ZM140.339 103.5C140.339 100.981 142.381 98.9394 144.9 98.9394C147.419 98.9394 149.461 100.981 149.461 103.5C149.461 106.019 147.419 108.061 144.9 108.061C142.381 108.061 140.339 106.019 140.339 103.5Z" fill="black"/>
<path d="M139.883 144.9C139.883 147.671 142.129 149.917 144.9 149.917C147.67 149.917 149.916 147.671 149.916 144.9C149.916 142.13 147.67 139.883 144.9 139.883C142.129 139.883 139.883 142.13 139.883 144.9ZM139.326 144.9C139.326 141.822 141.821 139.326 144.9 139.326C147.978 139.326 150.474 141.822 150.474 144.9C150.474 147.979 147.978 150.474 144.9 150.474C141.821 150.474 139.326 147.979 139.326 144.9Z" fill="black"/>
<path d="M138.971 186.3C138.971 189.574 141.626 192.228 144.9 192.228C148.174 192.228 150.828 189.574 150.828 186.3C150.828 183.026 148.174 180.372 144.9 180.372C141.626 180.372 138.971 183.026 138.971 186.3ZM138.312 186.3C138.312 182.662 141.262 179.712 144.9 179.712C148.538 179.712 151.488 182.662 151.488 186.3C151.488 189.938 148.538 192.888 144.9 192.888C141.262 192.888 138.312 189.938 138.312 186.3Z" fill="black"/>
<path d="M138.059 227.7C138.059 231.478 141.122 234.541 144.9 234.541C148.678 234.541 151.741 231.478 151.741 227.7C151.741 223.922 148.678 220.859 144.9 220.859C141.122 220.859 138.059 223.922 138.059 227.7ZM137.299 227.7C137.299 223.502 140.702 220.099 144.9 220.099C149.098 220.099 152.501 223.502 152.501 227.7C152.501 231.898 149.098 235.301 144.9 235.301C140.702 235.301 137.299 231.898 137.299 227.7Z" fill="black"/>
<path d="M137.147 269.1C137.147 273.382 140.618 276.853 144.9 276.853C149.182 276.853 152.653 273.382 152.653 269.1C152.653 264.818 149.182 261.347 144.9 261.347C140.618 261.347 137.147 264.818 137.147 269.1ZM136.285 269.1C136.285 264.342 140.142 260.486 144.9 260.486C149.658 260.486 153.514 264.342 153.514 269.1C153.514 273.858 149.658 277.715 144.9 277.715C140.142 277.715 136.285 273.858 136.285 269.1Z" fill="black"/>
<path d="M136.235 310.5C136.235 315.286 140.114 319.166 144.9 319.166C149.686 319.166 153.565 315.286 153.565 310.5C153.565 305.714 149.686 301.835 144.9 301.835C140.114 301.835 136.235 305.714 136.235 310.5ZM135.272 310.5C135.272 305.183 139.583 300.872 144.9 300.872C150.217 300.872 154.528 305.183 154.528 310.5C154.528 315.817 150.217 320.128 144.9 320.128C139.583 320.128 135.272 315.817 135.272 310.5Z" fill="black"/>
<path d="M135.323 351.9C135.323 357.189 139.611 361.478 144.9 361.478C150.189 361.478 154.477 357.189 154.477 351.9C154.477 346.611 150.189 342.323 144.9 342.323C139.611 342.323 135.323 346.611 135.323 351.9ZM134.259 351.9C134.259 346.023 139.023 341.259 144.9 341.259C150.777 341.259 155.541 346.023 155.541 351.9C155.541 357.777 150.777 362.542 144.9 362.542C139.023 362.542 134.259 357.777 134.259 351.9Z" fill="black"/>
<path d="M134.41 393.3C134.41 399.093 139.107 403.79 144.9 403.79C150.693 403.79 155.389 399.093 155.389 393.3C155.389 387.507 150.693 382.81 144.9 382.81C139.107 382.81 134.41 387.507 134.41 393.3ZM133.245 393.3C133.245 386.863 138.463 381.645 144.9 381.645C151.337 381.645 156.555 386.863 156.555 393.3C156.555 399.737 151.337 404.955 144.9 404.955C138.463 404.955 133.245 399.737 133.245 393.3Z" fill="black"/>
<path d="M184.288 20.7001C184.288 21.8112 185.188 22.7121 186.3 22.7121C187.412 22.7121 188.312 21.8112 188.312 20.7001C188.312 19.5889 187.412 18.688 186.3 18.688C185.188 18.688 184.288 19.5889 184.288 20.7001ZM184.064 20.7001C184.064 19.4655 185.065 18.4645 186.3 18.4645C187.534 18.4645 188.536 19.4655 188.536 20.7001C188.536 21.9346 187.534 22.9357 186.3 22.9357C185.065 22.9357 184.064 21.9346 184.064 20.7001Z" fill="black"/>
<path d="M183.483 62.1C183.483 63.6558 184.744 64.9169 186.3 64.9169C187.856 64.9169 189.117 63.6558 189.117 62.1C189.117 60.5442 187.856 59.2832 186.3 59.2832C184.744 59.2832 183.483 60.5442 183.483 62.1ZM183.17 62.1C183.17 60.3716 184.572 58.9702 186.3 58.9702C188.028 58.9702 189.43 60.3716 189.43 62.1C189.43 63.8285 188.028 65.2299 186.3 65.2299C184.572 65.2299 183.17 63.8285 183.17 62.1Z" fill="black"/>
<path d="M182.678 103.5C182.678 105.501 184.3 107.122 186.3 107.122C188.3 107.122 189.922 105.501 189.922 103.5C189.922 101.5 188.3 99.8784 186.3 99.8784C184.3 99.8784 182.678 101.5 182.678 103.5ZM182.276 103.5C182.276 101.278 184.078 99.476 186.3 99.476C188.522 99.476 190.324 101.278 190.324 103.5C190.324 105.722 188.522 107.524 186.3 107.524C184.078 107.524 182.276 105.722 182.276 103.5Z" fill="black"/>
<path d="M181.873 144.9C181.873 147.345 183.855 149.327 186.3 149.327C188.745 149.327 190.726 147.345 190.726 144.9C190.726 142.455 188.745 140.474 186.3 140.474C183.855 140.474 181.873 142.455 181.873 144.9ZM181.382 144.9C181.382 142.184 183.583 139.982 186.3 139.982C189.017 139.982 191.218 142.184 191.218 144.9C191.218 147.616 189.017 149.818 186.3 149.818C183.583 149.818 181.382 147.616 181.382 144.9Z" fill="black"/>
<path d="M181.069 186.3C181.069 189.189 183.411 191.531 186.3 191.531C189.189 191.531 191.531 189.189 191.531 186.3C191.531 183.411 189.189 181.069 186.3 181.069C183.411 181.069 181.069 183.411 181.069 186.3ZM180.487 186.3C180.487 183.09 183.09 180.487 186.3 180.487C189.51 180.487 192.113 183.09 192.113 186.3C192.113 189.51 189.51 192.113 186.3 192.113C183.09 192.113 180.487 189.51 180.487 186.3Z" fill="black"/>
<path d="M180.264 227.7C180.264 231.034 182.966 233.736 186.3 233.736C189.634 233.736 192.336 231.034 192.336 227.7C192.336 224.366 189.634 221.664 186.3 221.664C182.966 221.664 180.264 224.366 180.264 227.7ZM179.593 227.7C179.593 223.996 182.596 220.993 186.3 220.993C190.004 220.993 193.007 223.996 193.007 227.7C193.007 231.404 190.004 234.407 186.3 234.407C182.596 234.407 179.593 231.404 179.593 227.7Z" fill="black"/>
<path d="M179.459 269.1C179.459 272.878 182.522 275.941 186.3 275.941C190.078 275.941 193.141 272.878 193.141 269.1C193.141 265.322 190.078 262.259 186.3 262.259C182.522 262.259 179.459 265.322 179.459 269.1ZM178.699 269.1C178.699 264.902 182.102 261.499 186.3 261.499C190.498 261.499 193.901 264.902 193.901 269.1C193.901 273.298 190.498 276.701 186.3 276.701C182.102 276.701 178.699 273.298 178.699 269.1Z" fill="black"/>
<path d="M178.654 310.5C178.654 314.722 182.078 318.146 186.3 318.146C190.522 318.146 193.946 314.722 193.946 310.5C193.946 306.278 190.522 302.854 186.3 302.854C182.078 302.854 178.654 306.278 178.654 310.5ZM177.805 310.5C177.805 305.808 181.608 302.005 186.3 302.005C190.992 302.005 194.795 305.808 194.795 310.5C194.795 315.192 190.992 318.995 186.3 318.995C181.608 318.995 177.805 315.192 177.805 310.5Z" fill="black"/>
<path d="M177.849 351.9C177.849 356.567 181.633 360.351 186.3 360.351C190.967 360.351 194.75 356.567 194.75 351.9C194.75 347.233 190.967 343.449 186.3 343.449C181.633 343.449 177.849 347.233 177.849 351.9ZM176.91 351.9C176.91 346.715 181.115 342.511 186.3 342.511C191.485 342.511 195.689 346.715 195.689 351.9C195.689 357.085 191.485 361.29 186.3 361.29C181.115 361.29 176.91 357.085 176.91 351.9Z" fill="black"/>
<path d="M177.045 393.3C177.045 398.412 181.188 402.555 186.3 402.555C191.412 402.555 195.555 398.412 195.555 393.3C195.555 388.188 191.412 384.045 186.3 384.045C181.188 384.045 177.045 388.188 177.045 393.3ZM176.016 393.3C176.016 387.62 180.62 383.016 186.3 383.016C191.98 383.016 196.584 387.62 196.584 393.3C196.584 398.98 191.98 403.584 186.3 403.584C180.62 403.584 176.016 398.98 176.016 393.3Z" fill="black"/>
<path d="M225.956 20.7001C225.956 21.663 226.737 22.4438 227.7 22.4438C228.663 22.4438 229.444 21.663 229.444 20.7001C229.444 19.7371 228.663 18.9563 227.7 18.9563C226.737 18.9563 225.956 19.7371 225.956 20.7001ZM225.762 20.7001C225.762 19.6299 226.63 18.7625 227.7 18.7625C228.77 18.7625 229.637 19.6299 229.637 20.7001C229.637 21.7703 228.77 22.6376 227.7 22.6376C226.63 22.6376 225.762 21.7703 225.762 20.7001Z" fill="black"/>
<path d="M225.259 62.1C225.259 63.4484 226.352 64.5413 227.7 64.5413C229.048 64.5413 230.141 63.4484 230.141 62.1C230.141 60.7516 229.048 59.6586 227.7 59.6586C226.352 59.6586 225.259 60.7516 225.259 62.1ZM224.987 62.1C224.987 60.6017 226.202 59.3875 227.7 59.3875C229.198 59.3875 230.412 60.6017 230.412 62.1C230.412 63.5983 229.198 64.8125 227.7 64.8125C226.202 64.8125 224.987 63.5983 224.987 62.1Z" fill="black"/>
<path d="M224.561 103.5C224.561 105.233 225.967 106.639 227.7 106.639C229.434 106.639 230.839 105.233 230.839 103.5C230.839 101.767 229.434 100.361 227.7 100.361C225.967 100.361 224.561 101.767 224.561 103.5ZM224.212 103.5C224.212 101.574 225.774 100.012 227.7 100.012C229.626 100.012 231.187 101.574 231.187 103.5C231.187 105.426 229.626 106.988 227.7 106.988C225.774 106.988 224.212 105.426 224.212 103.5Z" fill="black"/>
<path d="M223.863 144.9C223.863 147.019 225.581 148.737 227.7 148.737C229.818 148.737 231.536 147.019 231.536 144.9C231.536 142.781 229.818 141.064 227.7 141.064C225.581 141.064 223.863 142.781 223.863 144.9ZM223.437 144.9C223.437 142.546 225.346 140.638 227.7 140.638C230.054 140.638 231.962 142.546 231.962 144.9C231.962 147.254 230.054 149.163 227.7 149.163C225.346 149.163 223.437 147.254 223.437 144.9Z" fill="black"/>
<path d="M223.166 186.3C223.166 188.804 225.196 190.834 227.7 190.834C230.204 190.834 232.234 188.804 232.234 186.3C232.234 183.796 230.204 181.766 227.7 181.766C225.196 181.766 223.166 183.796 223.166 186.3ZM222.662 186.3C222.662 183.517 224.917 181.262 227.7 181.262C230.482 181.262 232.737 183.517 232.737 186.3C232.737 189.082 230.482 191.338 227.7 191.338C224.917 191.338 222.662 189.082 222.662 186.3Z" fill="black"/>
<path d="M222.469 227.7C222.469 230.589 224.811 232.931 227.7 232.931C230.589 232.931 232.931 230.589 232.931 227.7C232.931 224.811 230.589 222.469 227.7 222.469C224.811 222.469 222.469 224.811 222.469 227.7ZM221.887 227.7C221.887 224.49 224.49 221.887 227.7 221.887C230.91 221.887 233.513 224.49 233.513 227.7C233.513 230.91 230.91 233.513 227.7 233.513C224.49 233.513 221.887 230.91 221.887 227.7Z" fill="black"/>
<path d="M221.772 269.1C221.772 272.374 224.426 275.029 227.7 275.029C230.974 275.029 233.628 272.374 233.628 269.1C233.628 265.826 230.974 263.172 227.7 263.172C224.426 263.172 221.772 265.826 221.772 269.1ZM221.112 269.1C221.112 265.462 224.062 262.512 227.7 262.512C231.338 262.512 234.288 265.462 234.288 269.1C234.288 272.738 231.338 275.688 227.7 275.688C224.062 275.688 221.112 272.738 221.112 269.1Z" fill="black"/>
<path d="M221.073 310.5C221.073 314.16 224.04 317.126 227.7 317.126C231.36 317.126 234.326 314.16 234.326 310.5C234.326 306.84 231.36 303.873 227.7 303.873C224.04 303.873 221.073 306.84 221.073 310.5ZM220.337 310.5C220.337 306.434 223.634 303.137 227.7 303.137C231.766 303.137 235.063 306.434 235.063 310.5C235.063 314.566 231.766 317.863 227.7 317.863C223.634 317.863 220.337 314.566 220.337 310.5Z" fill="black"/>
<path d="M220.376 351.9C220.376 355.945 223.655 359.224 227.7 359.224C231.745 359.224 235.024 355.945 235.024 351.9C235.024 347.855 231.745 344.576 227.7 344.576C223.655 344.576 220.376 347.855 220.376 351.9ZM219.562 351.9C219.562 347.406 223.206 343.762 227.7 343.762C232.194 343.762 235.838 347.406 235.838 351.9C235.838 356.394 232.194 360.038 227.7 360.038C223.206 360.038 219.562 356.394 219.562 351.9Z" fill="black"/>
<path d="M219.679 393.3C219.679 397.73 223.27 401.321 227.7 401.321C232.13 401.321 235.721 397.73 235.721 393.3C235.721 388.87 232.13 385.279 227.7 385.279C223.27 385.279 219.679 388.87 219.679 393.3ZM218.787 393.3C218.787 388.377 222.777 384.387 227.7 384.387C232.622 384.387 236.613 388.377 236.613 393.3C236.613 398.222 232.622 402.213 227.7 402.213C222.777 402.213 218.787 398.222 218.787 393.3Z" fill="black"/>
<path d="M267.624 20.7001C267.624 21.5148 268.285 22.1755 269.1 22.1755C269.915 22.1755 270.575 21.5148 270.575 20.7001C270.575 19.8853 269.915 19.2246 269.1 19.2246C268.285 19.2246 267.624 19.8853 267.624 20.7001ZM267.46 20.7001C267.46 19.7946 268.194 19.0606 269.1 19.0606C270.006 19.0606 270.739 19.7946 270.739 20.7001C270.739 21.6055 270.006 22.3395 269.1 22.3395C268.194 22.3395 267.46 21.6055 267.46 20.7001Z" fill="black"/>
<path d="M267.034 62.1C267.034 63.241 267.959 64.1659 269.1 64.1659C270.241 64.1659 271.165 63.241 271.165 62.1C271.165 60.959 270.241 60.0342 269.1 60.0342C267.959 60.0342 267.034 60.959 267.034 62.1ZM266.805 62.1C266.805 60.8324 267.832 59.8048 269.1 59.8048C270.368 59.8048 271.395 60.8324 271.395 62.1C271.395 63.3677 270.368 64.3953 269.1 64.3953C267.832 64.3953 266.805 63.3677 266.805 62.1Z" fill="black"/>
<path d="M266.444 103.5C266.444 104.967 267.633 106.156 269.1 106.156C270.567 106.156 271.756 104.967 271.756 103.5C271.756 102.033 270.567 100.844 269.1 100.844C267.633 100.844 266.444 102.033 266.444 103.5ZM266.149 103.5C266.149 101.87 267.47 100.549 269.1 100.549C270.73 100.549 272.051 101.87 272.051 103.5C272.051 105.13 270.73 106.451 269.1 106.451C267.47 106.451 266.149 105.13 266.149 103.5Z" fill="black"/>
<path d="M265.854 144.9C265.854 146.693 267.307 148.146 269.1 148.146C270.893 148.146 272.346 146.693 272.346 144.9C272.346 143.107 270.893 141.654 269.1 141.654C267.307 141.654 265.854 143.107 265.854 144.9ZM265.493 144.9C265.493 142.908 267.108 141.293 269.1 141.293C271.092 141.293 272.707 142.908 272.707 144.9C272.707 146.892 271.092 148.507 269.1 148.507C267.108 148.507 265.493 146.892 265.493 144.9Z" fill="black"/>
<path d="M265.263 186.3C265.263 188.419 266.982 190.137 269.1 190.137C271.218 190.137 272.936 188.419 272.936 186.3C272.936 184.181 271.218 182.464 269.1 182.464C266.982 182.464 265.263 184.181 265.263 186.3ZM264.837 186.3C264.837 183.946 266.746 182.038 269.1 182.038C271.454 182.038 273.362 183.946 273.362 186.3C273.362 188.654 271.454 190.563 269.1 190.563C266.746 190.563 264.837 188.654 264.837 186.3Z" fill="black"/>
<path d="M264.673 227.7C264.673 230.145 266.655 232.126 269.1 232.126C271.545 232.126 273.526 230.145 273.526 227.7C273.526 225.255 271.545 223.273 269.1 223.273C266.655 223.273 264.673 225.255 264.673 227.7ZM264.182 227.7C264.182 224.983 266.383 222.782 269.1 222.782C271.817 222.782 274.018 224.983 274.018 227.7C274.018 230.417 271.817 232.618 269.1 232.618C266.383 232.618 264.182 230.417 264.182 227.7Z" fill="black"/>
<path d="M264.084 269.1C264.084 271.87 266.329 274.116 269.1 274.116C271.87 274.116 274.116 271.87 274.116 269.1C274.116 266.329 271.87 264.084 269.1 264.084C266.329 264.084 264.084 266.329 264.084 269.1ZM263.526 269.1C263.526 266.021 266.021 263.526 269.1 263.526C272.178 263.526 274.674 266.021 274.674 269.1C274.674 272.178 272.178 274.674 269.1 274.674C266.021 274.674 263.526 272.178 263.526 269.1Z" fill="black"/>
<path d="M263.493 310.5C263.493 313.596 266.004 316.107 269.1 316.107C272.196 316.107 274.707 313.596 274.707 310.5C274.707 307.404 272.196 304.893 269.1 304.893C266.004 304.893 263.493 307.404 263.493 310.5ZM262.87 310.5C262.87 307.059 265.659 304.27 269.1 304.27C272.541 304.27 275.33 307.059 275.33 310.5C275.33 313.941 272.541 316.73 269.1 316.73C265.659 316.73 262.87 313.941 262.87 310.5Z" fill="black"/>
<path d="M262.903 351.9C262.903 355.323 265.677 358.097 269.1 358.097C272.523 358.097 275.297 355.323 275.297 351.9C275.297 348.477 272.523 345.703 269.1 345.703C265.677 345.703 262.903 348.477 262.903 351.9ZM262.214 351.9C262.214 348.097 265.297 345.014 269.1 345.014C272.903 345.014 275.986 348.097 275.986 351.9C275.986 355.703 272.903 358.786 269.1 358.786C265.297 358.786 262.214 355.703 262.214 351.9Z" fill="black"/>
<path d="M262.312 393.3C262.312 397.049 265.351 400.087 269.1 400.087C272.849 400.087 275.888 397.049 275.888 393.3C275.888 389.551 272.849 386.513 269.1 386.513C265.351 386.513 262.312 389.551 262.312 393.3ZM261.559 393.3C261.559 389.135 264.935 385.759 269.1 385.759C273.265 385.759 276.641 389.135 276.641 393.3C276.641 397.465 273.265 400.841 269.1 400.841C264.935 400.841 261.559 397.465 261.559 393.3Z" fill="black"/>
<path d="M309.293 20.7C309.293 21.3665 309.833 21.9072 310.5 21.9072C311.166 21.9072 311.707 21.3665 311.707 20.7C311.707 20.0331 311.166 19.4928 310.5 19.4928C309.833 19.4928 309.293 20.0331 309.293 20.7ZM309.159 20.7C309.159 19.9589 309.759 19.3586 310.5 19.3586C311.241 19.3586 311.841 19.9589 311.841 20.7C311.841 21.4407 311.241 22.0414 310.5 22.0414C309.759 22.0414 309.159 21.4407 309.159 20.7Z" fill="black"/>
<path d="M308.81 62.1C308.81 63.0336 309.566 63.7904 310.5 63.7904C311.434 63.7904 312.19 63.0336 312.19 62.1C312.19 61.1664 311.434 60.4096 310.5 60.4096C309.566 60.4096 308.81 61.1664 308.81 62.1ZM308.622 62.1C308.622 61.0629 309.463 60.2221 310.5 60.2221C311.537 60.2221 312.378 61.0629 312.378 62.1C312.378 63.1371 311.537 63.9779 310.5 63.9779C309.463 63.9779 308.622 63.1371 308.622 62.1Z" fill="black"/>
<path d="M308.327 103.5C308.327 104.7 309.3 105.673 310.5 105.673C311.7 105.673 312.673 104.7 312.673 103.5C312.673 102.3 311.7 101.327 310.5 101.327C309.3 101.327 308.327 102.3 308.327 103.5ZM308.085 103.5C308.085 102.166 309.166 101.086 310.5 101.086C311.833 101.086 312.914 102.166 312.914 103.5C312.914 104.833 311.833 105.914 310.5 105.914C309.166 105.914 308.085 104.833 308.085 103.5Z" fill="black"/>
<path d="M307.844 144.9C307.844 146.367 309.033 147.556 310.5 147.556C311.967 147.556 313.156 146.367 313.156 144.9C313.156 143.433 311.967 142.244 310.5 142.244C309.033 142.244 307.844 143.433 307.844 144.9ZM307.549 144.9C307.549 143.27 308.87 141.949 310.5 141.949C312.13 141.949 313.451 143.27 313.451 144.9C313.451 146.53 312.13 147.851 310.5 147.851C308.87 147.851 307.549 146.53 307.549 144.9Z" fill="black"/>
<path d="M307.361 186.3C307.361 188.034 308.767 189.439 310.5 189.439C312.234 189.439 313.639 188.034 313.639 186.3C313.639 184.567 312.234 183.161 310.5 183.161C308.767 183.161 307.361 184.567 307.361 186.3ZM307.012 186.3C307.012 184.374 308.574 182.813 310.5 182.813C312.426 182.813 313.988 184.374 313.988 186.3C313.988 188.226 312.426 189.788 310.5 189.788C308.574 189.788 307.012 188.226 307.012 186.3Z" fill="black"/>
<path d="M306.878 227.7C306.878 229.7 308.5 231.322 310.5 231.322C312.5 231.322 314.122 229.7 314.122 227.7C314.122 225.7 312.5 224.078 310.5 224.078C308.5 224.078 306.878 225.7 306.878 227.7ZM306.476 227.7C306.476 225.478 308.278 223.676 310.5 223.676C312.722 223.676 314.524 225.478 314.524 227.7C314.524 229.922 312.722 231.724 310.5 231.724C308.278 231.724 306.476 229.922 306.476 227.7Z" fill="black"/>
<path d="M306.396 269.1C306.396 271.367 308.233 273.204 310.5 273.204C312.767 273.204 314.604 271.367 314.604 269.1C314.604 266.833 312.767 264.996 310.5 264.996C308.233 264.996 306.396 266.833 306.396 269.1ZM305.939 269.1C305.939 266.581 307.981 264.539 310.5 264.539C313.019 264.539 315.061 266.581 315.061 269.1C315.061 271.619 313.019 273.661 310.5 273.661C307.981 273.661 305.939 271.619 305.939 269.1Z" fill="black"/>
<path d="M305.912 310.5C305.912 313.034 307.966 315.088 310.5 315.088C313.034 315.088 315.088 313.034 315.088 310.5C315.088 307.966 313.034 305.912 310.5 305.912C307.966 305.912 305.912 307.966 305.912 310.5ZM305.403 310.5C305.403 307.685 307.685 305.403 310.5 305.403C313.315 305.403 315.598 307.685 315.598 310.5C315.598 313.315 313.315 315.597 310.5 315.597C307.685 315.597 305.403 313.315 305.403 310.5Z" fill="black"/>
<path d="M305.43 351.9C305.43 354.7 307.7 356.97 310.5 356.97C313.3 356.97 315.57 354.7 315.57 351.9C315.57 349.1 313.3 346.83 310.5 346.83C307.7 346.83 305.43 349.1 305.43 351.9ZM304.866 351.9C304.866 348.788 307.388 346.266 310.5 346.266C313.612 346.266 316.134 348.788 316.134 351.9C316.134 355.012 313.612 357.534 310.5 357.534C307.388 357.534 304.866 355.012 304.866 351.9Z" fill="black"/>
<path d="M304.947 393.3C304.947 396.367 307.433 398.853 310.5 398.853C313.567 398.853 316.053 396.367 316.053 393.3C316.053 390.233 313.567 387.747 310.5 387.747C307.433 387.747 304.947 390.233 304.947 393.3ZM304.33 393.3C304.33 389.892 307.092 387.13 310.5 387.13C313.908 387.13 316.67 389.892 316.67 393.3C316.67 396.708 313.908 399.47 310.5 399.47C307.092 399.47 304.33 396.708 304.33 393.3Z" fill="black"/>
<path d="M350.961 20.7001C350.961 21.2184 351.381 21.6391 351.9 21.6391C352.419 21.6391 352.839 21.2184 352.839 20.7001C352.839 20.1818 352.419 19.7612 351.9 19.7612C351.381 19.7612 350.961 20.1818 350.961 20.7001ZM350.857 20.7001C350.857 20.1238 351.324 19.6568 351.9 19.6568C352.476 19.6568 352.943 20.1238 352.943 20.7001C352.943 21.276 352.476 21.7434 351.9 21.7434C351.324 21.7434 350.857 21.276 350.857 20.7001Z" fill="black"/>
<path d="M350.585 62.0999C350.585 62.8257 351.174 63.4144 351.9 63.4144C352.626 63.4144 353.214 62.8257 353.214 62.0999C353.214 61.3742 352.626 60.7855 351.9 60.7855C351.174 60.7855 350.585 61.3742 350.585 62.0999ZM350.439 62.0999C350.439 61.2935 351.093 60.6393 351.9 60.6393C352.706 60.6393 353.361 61.2935 353.361 62.0999C353.361 62.9064 352.706 63.5605 351.9 63.5605C351.093 63.5605 350.439 62.9064 350.439 62.0999Z" fill="black"/>
<path d="M350.21 103.5C350.21 104.434 350.966 105.19 351.9 105.19C352.833 105.19 353.59 104.434 353.59 103.5C353.59 102.566 352.833 101.81 351.9 101.81C350.966 101.81 350.21 102.566 350.21 103.5ZM350.022 103.5C350.022 102.463 350.863 101.622 351.9 101.622C352.937 101.622 353.778 102.463 353.778 103.5C353.778 104.537 352.937 105.378 351.9 105.378C350.863 105.378 350.022 104.537 350.022 103.5Z" fill="black"/>
<path d="M349.835 144.9C349.835 146.041 350.759 146.966 351.9 146.966C353.041 146.966 353.965 146.041 353.965 144.9C353.965 143.759 353.041 142.834 351.9 142.834C350.759 142.834 349.835 143.759 349.835 144.9ZM349.605 144.9C349.605 143.632 350.632 142.605 351.9 142.605C353.168 142.605 354.195 143.632 354.195 144.9C354.195 146.168 353.168 147.195 351.9 147.195C350.632 147.195 349.605 146.168 349.605 144.9Z" fill="black"/>
<path d="M349.459 186.3C349.459 187.648 350.552 188.741 351.9 188.741C353.248 188.741 354.341 187.648 354.341 186.3C354.341 184.952 353.248 183.859 351.9 183.859C350.552 183.859 349.459 184.952 349.459 186.3ZM349.188 186.3C349.188 184.802 350.402 183.588 351.9 183.588C353.398 183.588 354.613 184.802 354.613 186.3C354.613 187.798 353.398 189.013 351.9 189.013C350.402 189.013 349.188 187.798 349.188 186.3Z" fill="black"/>
<path d="M349.083 227.7C349.083 229.256 350.344 230.517 351.9 230.517C353.456 230.517 354.717 229.256 354.717 227.7C354.717 226.144 353.456 224.883 351.9 224.883C350.344 224.883 349.083 226.144 349.083 227.7ZM348.77 227.7C348.77 225.972 350.171 224.57 351.9 224.57C353.629 224.57 355.03 225.972 355.03 227.7C355.03 229.428 353.629 230.83 351.9 230.83C350.171 230.83 348.77 229.428 348.77 227.7Z" fill="black"/>
<path d="M348.708 269.1C348.708 270.863 350.137 272.292 351.9 272.292C353.663 272.292 355.092 270.863 355.092 269.1C355.092 267.337 353.663 265.908 351.9 265.908C350.137 265.908 348.708 267.337 348.708 269.1ZM348.353 269.1C348.353 267.141 349.941 265.553 351.9 265.553C353.859 265.553 355.447 267.141 355.447 269.1C355.447 271.059 353.859 272.647 351.9 272.647C349.941 272.647 348.353 271.059 348.353 269.1Z" fill="black"/>
<path d="M348.332 310.5C348.332 312.471 349.929 314.068 351.9 314.068C353.871 314.068 355.468 312.471 355.468 310.5C355.468 308.529 353.871 306.932 351.9 306.932C349.929 306.932 348.332 308.529 348.332 310.5ZM347.936 310.5C347.936 308.31 349.71 306.536 351.9 306.536C354.09 306.536 355.864 308.31 355.864 310.5C355.864 312.69 354.09 314.464 351.9 314.464C349.71 314.464 347.936 312.69 347.936 310.5Z" fill="black"/>
<path d="M347.957 351.9C347.957 354.078 349.722 355.843 351.9 355.843C354.078 355.843 355.843 354.078 355.843 351.9C355.843 349.722 354.078 347.957 351.9 347.957C349.722 347.957 347.957 349.722 347.957 351.9ZM347.518 351.9C347.518 349.48 349.48 347.518 351.9 347.518C354.32 347.518 356.282 349.48 356.282 351.9C356.282 354.32 354.32 356.282 351.9 356.282C349.48 356.282 347.518 354.32 347.518 351.9Z" fill="black"/>
<path d="M347.581 393.3C347.581 395.686 349.514 397.619 351.9 397.619C354.285 397.619 356.219 395.686 356.219 393.3C356.219 390.914 354.285 388.981 351.9 388.981C349.514 388.981 347.581 390.914 347.581 393.3ZM347.101 393.3C347.101 390.65 349.249 388.501 351.9 388.501C354.55 388.501 356.699 390.65 356.699 393.3C356.699 395.95 354.55 398.099 351.9 398.099C349.249 398.099 347.101 395.95 347.101 393.3Z" fill="black"/>
<path d="M392.629 20.7C392.629 21.0705 392.929 21.3707 393.3 21.3707C393.67 21.3707 393.971 21.0705 393.971 20.7C393.971 20.3295 393.67 20.0293 393.3 20.0293C392.929 20.0293 392.629 20.3295 392.629 20.7ZM392.555 20.7C392.555 20.2885 392.888 19.9548 393.3 19.9548C393.711 19.9548 394.045 20.2885 394.045 20.7C394.045 21.1115 393.711 21.4452 393.3 21.4452C392.888 21.4452 392.555 21.1115 392.555 20.7Z" fill="black"/>
<path d="M392.361 62.1C392.361 62.6184 392.781 63.039 393.3 63.039C393.819 63.039 394.239 62.6184 394.239 62.1C394.239 61.5817 393.819 61.1611 393.3 61.1611C392.781 61.1611 392.361 61.5817 392.361 62.1ZM392.257 62.1C392.257 61.5237 392.724 61.0567 393.3 61.0567C393.876 61.0567 394.343 61.5237 394.343 62.1C394.343 62.6763 393.876 63.1433 393.3 63.1433C392.724 63.1433 392.257 62.6763 392.257 62.1Z" fill="black"/>
<path d="M392.093 103.5C392.093 104.166 392.633 104.707 393.3 104.707C393.966 104.707 394.507 104.166 394.507 103.5C394.507 102.833 393.966 102.293 393.3 102.293C392.633 102.293 392.093 102.833 392.093 103.5ZM391.958 103.5C391.958 102.759 392.559 102.159 393.3 102.159C394.041 102.159 394.641 102.759 394.641 103.5C394.641 104.241 394.041 104.841 393.3 104.841C392.559 104.841 391.958 104.241 391.958 103.5Z" fill="black"/>
<path d="M391.824 144.9C391.824 145.715 392.485 146.375 393.3 146.375C394.115 146.375 394.775 145.715 394.775 144.9C394.775 144.085 394.115 143.424 393.3 143.424C392.485 143.424 391.824 144.085 391.824 144.9ZM391.661 144.9C391.661 143.995 392.395 143.261 393.3 143.261C394.206 143.261 394.939 143.995 394.939 144.9C394.939 145.805 394.206 146.539 393.3 146.539C392.395 146.539 391.661 145.805 391.661 144.9Z" fill="black"/>
<path d="M391.556 186.3C391.556 187.263 392.337 188.044 393.3 188.044C394.263 188.044 395.044 187.263 395.044 186.3C395.044 185.337 394.263 184.556 393.3 184.556C392.337 184.556 391.556 185.337 391.556 186.3ZM391.362 186.3C391.362 185.23 392.23 184.363 393.3 184.363C394.37 184.363 395.237 185.23 395.237 186.3C395.237 187.37 394.37 188.238 393.3 188.238C392.23 188.238 391.362 187.37 391.362 186.3Z" fill="black"/>
<path d="M391.288 227.7C391.288 228.812 392.189 229.712 393.3 229.712C394.411 229.712 395.312 228.812 395.312 227.7C395.312 226.588 394.411 225.688 393.3 225.688C392.189 225.688 391.288 226.588 391.288 227.7ZM391.064 227.7C391.064 226.466 392.065 225.464 393.3 225.464C394.534 225.464 395.536 226.466 395.536 227.7C395.536 228.935 394.534 229.936 393.3 229.936C392.065 229.936 391.064 228.935 391.064 227.7Z" fill="black"/>
<path d="M391.02 269.1C391.02 270.359 392.041 271.38 393.3 271.38C394.559 271.38 395.58 270.359 395.58 269.1C395.58 267.841 394.559 266.82 393.3 266.82C392.041 266.82 391.02 267.841 391.02 269.1ZM390.766 269.1C390.766 267.701 391.901 266.566 393.3 266.566C394.699 266.566 395.834 267.701 395.834 269.1C395.834 270.499 394.699 271.634 393.3 271.634C391.901 271.634 390.766 270.499 390.766 269.1Z" fill="black"/>
<path d="M390.751 310.5C390.751 311.907 391.893 313.049 393.3 313.049C394.707 313.049 395.849 311.907 395.849 310.5C395.849 309.093 394.707 307.951 393.3 307.951C391.893 307.951 390.751 309.093 390.751 310.5ZM390.468 310.5C390.468 308.936 391.736 307.668 393.3 307.668C394.864 307.668 396.132 308.936 396.132 310.5C396.132 312.064 394.864 313.332 393.3 313.332C391.736 313.332 390.468 312.064 390.468 310.5Z" fill="black"/>
<path d="M390.483 351.9C390.483 353.456 391.744 354.717 393.3 354.717C394.856 354.717 396.117 353.456 396.117 351.9C396.117 350.344 394.856 349.083 393.3 349.083C391.744 349.083 390.483 350.344 390.483 351.9ZM390.17 351.9C390.17 350.172 391.571 348.77 393.3 348.77C395.029 348.77 396.43 350.172 396.43 351.9C396.43 353.629 395.029 355.03 393.3 355.03C391.571 355.03 390.17 353.629 390.17 351.9Z" fill="black"/>
<path d="M390.215 393.3C390.215 395.004 391.596 396.385 393.3 396.385C395.004 396.385 396.385 395.004 396.385 393.3C396.385 391.596 395.004 390.215 393.3 390.215C391.596 390.215 390.215 391.596 390.215 393.3ZM389.872 393.3C389.872 391.407 391.407 389.872 393.3 389.872C395.193 389.872 396.728 391.407 396.728 393.3C396.728 395.193 395.193 396.728 393.3 396.728C391.407 396.728 389.872 395.193 389.872 393.3Z" fill="black"/>
<path d="M-1.43079 1.9908e-05C-1.43079 -0.79072 -0.790216 -1.4324 -5.99623e-05 -1.4324C0.790096 -1.4324 1.43067 -0.79072 1.43067 1.9908e-05C1.43067 0.790346 0.790096 1.43079 -5.99623e-05 1.43079C-0.790216 1.43079 -1.43079 0.790346 -1.43079 1.9908e-05Z" fill="black"/>
<path d="M-2.14624 41.4C-2.14624 40.2147 -1.18547 39.2538 -7.24792e-05 39.2538C1.18533 39.2538 2.1461 40.2147 2.1461 41.4C2.1461 42.5853 1.18533 43.5461 -7.24792e-05 43.5461C-1.18547 43.5461 -2.14624 42.5853 -2.14624 41.4Z" fill="black"/>
<path d="M-2.86169 82.8C-2.86169 81.2198 -1.5804 79.9385 -8.08239e-05 79.9385C1.58024 79.9385 2.86153 81.2198 2.86153 82.8C2.86153 84.3803 1.58024 85.6616 -8.08239e-05 85.6616C-1.5804 85.6616 -2.86169 84.3803 -2.86169 82.8Z" fill="black"/>
<path d="M-3.57715 124.2C-3.57715 122.225 -1.97565 120.623 -9.29832e-05 120.623C1.97547 120.623 3.57696 122.225 3.57696 124.2C3.57696 126.175 1.97547 127.777 -9.29832e-05 127.777C-1.97565 127.777 -3.57715 126.175 -3.57715 124.2Z" fill="black"/>
<path d="M-4.2926 165.6C-4.2926 163.229 -2.37072 161.308 -8.4877e-05 161.308C2.37055 161.308 4.29243 163.229 4.29243 165.6C4.29243 167.971 2.37055 169.892 -8.4877e-05 169.892C-2.37072 169.892 -4.2926 167.971 -4.2926 165.6Z" fill="black"/>
<path d="M-5.00781 207C-5.00781 204.234 -2.76574 201.992 -2.71797e-05 201.992C2.76569 201.992 5.00776 204.234 5.00776 207C5.00776 209.766 2.76569 212.008 -2.71797e-05 212.008C-2.76574 212.008 -5.00781 209.766 -5.00781 207Z" fill="black"/>
<path d="M-5.72327 248.4C-5.72327 245.239 -3.16084 242.677 -4.76837e-05 242.677C3.16075 242.677 5.72317 245.239 5.72317 248.4C5.72317 251.561 3.16075 254.123 -4.76837e-05 254.123C-3.16084 254.123 -5.72327 251.561 -5.72327 248.4Z" fill="black"/>
<path d="M-6.4386 289.8C-6.4386 286.244 -3.5561 283.361 -6.96182e-05 283.361C3.55596 283.361 6.43846 286.244 6.43846 289.8C6.43846 293.356 3.55596 296.239 -6.96182e-05 296.239C-3.5561 296.239 -6.4386 293.356 -6.4386 289.8Z" fill="black"/>
<path d="M-7.15381 331.2C-7.15381 327.249 -3.95096 324.046 -1.28746e-05 324.046C3.95094 324.046 7.15378 327.249 7.15378 331.2C7.15378 335.151 3.95094 338.354 -1.28746e-05 338.354C-3.95096 338.354 -7.15381 335.151 -7.15381 331.2Z" fill="black"/>
<path d="M-7.86926 372.6C-7.86926 368.254 -4.34621 364.731 -3.24249e-05 364.731C4.34614 364.731 7.8692 368.254 7.8692 372.6C7.8692 376.946 4.34614 380.469 -3.24249e-05 380.469C-4.34621 380.469 -7.86926 376.946 -7.86926 372.6Z" fill="black"/>
<path d="M-8.58472 414C-8.58472 409.259 -4.74118 405.415 -5.43594e-05 405.415C4.74107 405.415 8.58461 409.259 8.58461 414C8.58461 418.74 4.74107 422.586 -5.43594e-05 422.586C-4.74118 422.586 -8.58472 418.74 -8.58472 414Z" fill="black"/>
<path d="M40.0884 -1.57356e-05C40.0884 -0.724516 40.6756 -1.3124 41.3999 -1.3124C42.1244 -1.3124 42.7115 -0.724516 42.7115 -1.57356e-05C42.7115 0.724484 42.1244 1.31152 41.3999 1.31152C40.6756 1.31152 40.0884 0.724484 40.0884 -1.57356e-05Z" fill="black"/>
<path d="M39.4326 41.4C39.4326 40.3133 40.3134 39.4327 41.3999 39.4327C42.4867 39.4327 43.3673 40.3133 43.3673 41.4C43.3673 42.4868 42.4867 43.3673 41.3999 43.3673C40.3134 43.3673 39.4326 42.4868 39.4326 41.4Z" fill="black"/>
<path d="M38.7769 82.8C38.7769 81.3514 39.9511 80.1769 41.3999 80.1769C42.8489 80.1769 44.023 81.3514 44.023 82.8C44.023 84.2486 42.8489 85.4231 41.3999 85.4231C39.9511 85.4231 38.7769 84.2486 38.7769 82.8Z" fill="black"/>
<path d="M38.1211 124.2C38.1211 122.389 39.5892 120.921 41.3999 120.921C43.2108 120.921 44.6788 122.389 44.6788 124.2C44.6788 126.011 43.2108 127.479 41.3999 127.479C39.5892 127.479 38.1211 126.011 38.1211 124.2Z" fill="black"/>
<path d="M37.4653 165.6C37.4653 163.427 39.2269 161.665 41.3999 161.665C43.573 161.665 45.3346 163.427 45.3346 165.6C45.3346 167.773 43.573 169.535 41.3999 169.535C39.2269 169.535 37.4653 167.773 37.4653 165.6Z" fill="black"/>
<path d="M36.8096 207C36.8096 204.465 38.8649 202.41 41.4 202.41C43.9353 202.41 45.9904 204.465 45.9904 207C45.9904 209.535 43.9353 211.59 41.4 211.59C38.8649 211.59 36.8096 209.535 36.8096 207Z" fill="black"/>
<path d="M36.1538 248.4C36.1538 245.502 38.5026 243.154 41.4 243.154C44.2976 243.154 46.6462 245.502 46.6462 248.4C46.6462 251.298 44.2976 253.646 41.4 253.646C38.5026 253.646 36.1538 251.298 36.1538 248.4Z" fill="black"/>
<path d="M35.498 289.8C35.498 286.541 38.1404 283.898 41.4 283.898C44.6598 283.898 47.302 286.541 47.302 289.8C47.302 293.059 44.6598 295.702 41.4 295.702C38.1404 295.702 35.498 293.059 35.498 289.8Z" fill="black"/>
<path d="M34.8423 331.2C34.8423 327.578 37.7783 324.642 41.4 324.642C45.0216 324.642 47.9577 327.578 47.9577 331.2C47.9577 334.822 45.0216 337.758 41.4 337.758C37.7783 337.758 34.8423 334.822 34.8423 331.2Z" fill="black"/>
<path d="M34.1865 372.6C34.1865 368.616 37.4161 365.386 41.4 365.386C45.3839 365.386 48.6135 368.616 48.6135 372.6C48.6135 376.584 45.3839 379.813 41.4 379.813C37.4161 379.813 34.1865 376.584 34.1865 372.6Z" fill="black"/>
<path d="M33.5308 414C33.5308 409.654 37.0538 406.131 41.4 406.131C45.7462 406.131 49.2693 409.654 49.2693 414C49.2693 418.347 45.7462 421.87 41.4 421.87C37.0538 421.87 33.5308 418.347 33.5308 414Z" fill="black"/>
<path d="M81.6077 7.08103e-05C81.6077 -0.658189 82.1413 -1.19224 82.8 -1.19224C83.4587 -1.19224 83.9923 -0.658189 83.9923 7.08103e-05C83.9923 0.658745 83.4587 1.19238 82.8 1.19238C82.1413 1.19238 81.6077 0.658745 81.6077 7.08103e-05Z" fill="black"/>
<path d="M81.0115 41.4C81.0115 40.4122 81.8121 39.6115 82.8 39.6115C83.7878 39.6115 84.5884 40.4122 84.5884 41.4C84.5884 42.3878 83.7878 43.1885 82.8 43.1885C81.8121 43.1885 81.0115 42.3878 81.0115 41.4Z" fill="black"/>
<path d="M80.4153 82.8C80.4153 81.4831 81.483 80.4154 82.7999 80.4154C84.1169 80.4154 85.1846 81.4831 85.1846 82.8C85.1846 84.117 84.1169 85.1847 82.7999 85.1847C81.483 85.1847 80.4153 84.117 80.4153 82.8Z" fill="black"/>
<path d="M79.8191 124.2C79.8191 122.554 81.1534 121.219 82.7999 121.219C84.4464 121.219 85.7807 122.554 85.7807 124.2C85.7807 125.846 84.4464 127.181 82.7999 127.181C81.1534 127.181 79.8191 125.846 79.8191 124.2Z" fill="black"/>
<path d="M79.223 165.6C79.223 163.625 80.8244 162.023 82.8 162.023C84.7756 162.023 86.3769 163.625 86.3769 165.6C86.3769 167.575 84.7756 169.177 82.8 169.177C80.8244 169.177 79.223 167.575 79.223 165.6Z" fill="black"/>
<path d="M78.6268 207C78.6268 204.695 80.4952 202.827 82.8 202.827C85.1047 202.827 86.9731 204.695 86.9731 207C86.9731 209.305 85.1047 211.173 82.8 211.173C80.4952 211.173 78.6268 209.305 78.6268 207Z" fill="black"/>
<path d="M78.0306 248.4C78.0306 245.766 80.166 243.631 82.7999 243.631C85.4338 243.631 87.5692 245.766 87.5692 248.4C87.5692 251.034 85.4338 253.169 82.7999 253.169C80.166 253.169 78.0306 251.034 78.0306 248.4Z" fill="black"/>
<path d="M77.4346 289.8C77.4346 286.837 79.8366 284.435 82.8 284.435C85.7634 284.435 88.1655 286.837 88.1655 289.8C88.1655 292.763 85.7634 295.166 82.8 295.166C79.8366 295.166 77.4346 292.763 77.4346 289.8Z" fill="black"/>
<path d="M76.8384 331.2C76.8384 327.907 79.5074 325.238 82.8 325.238C86.0925 325.238 88.7616 327.907 88.7616 331.2C88.7616 334.493 86.0925 337.162 82.8 337.162C79.5074 337.162 76.8384 334.493 76.8384 331.2Z" fill="black"/>
<path d="M76.2422 372.6C76.2422 368.978 79.1783 366.042 82.7999 366.042C86.4216 366.042 89.3577 368.978 89.3577 372.6C89.3577 376.222 86.4216 379.158 82.7999 379.158C79.1783 379.158 76.2422 376.222 76.2422 372.6Z" fill="black"/>
<path d="M75.646 414C75.646 410.049 78.8491 406.846 82.7999 406.846C86.7507 406.846 89.9538 410.049 89.9538 414C89.9538 417.95 86.7507 421.154 82.7999 421.154C78.8491 421.154 75.646 417.95 75.646 414Z" fill="black"/>
<path d="M123.127 3.52859e-05C123.127 -0.591985 123.607 -1.07224 124.2 -1.07224C124.793 -1.07224 125.273 -0.591985 125.273 3.52859e-05C125.273 0.592883 124.793 1.07312 124.2 1.07312C123.607 1.07312 123.127 0.592883 123.127 3.52859e-05Z" fill="black"/>
<path d="M122.59 41.4C122.59 40.5107 123.311 39.7904 124.2 39.7904C125.089 39.7904 125.81 40.5107 125.81 41.4C125.81 42.2889 125.089 43.0096 124.2 43.0096C123.311 43.0096 122.59 42.2889 122.59 41.4Z" fill="black"/>
<path d="M122.054 82.8C122.054 81.6147 123.015 80.6538 124.2 80.6538C125.385 80.6538 126.346 81.6147 126.346 82.8C126.346 83.9853 125.385 84.9462 124.2 84.9462C123.015 84.9462 122.054 83.9853 122.054 82.8Z" fill="black"/>
<path d="M121.517 124.2C121.517 122.718 122.718 121.517 124.2 121.517C125.682 121.517 126.883 122.718 126.883 124.2C126.883 125.682 125.682 126.883 124.2 126.883C122.718 126.883 121.517 125.682 121.517 124.2Z" fill="black"/>
<path d="M120.981 165.6C120.981 163.822 122.422 162.381 124.2 162.381C125.978 162.381 127.419 163.822 127.419 165.6C127.419 167.378 125.978 168.819 124.2 168.819C122.422 168.819 120.981 167.378 120.981 165.6Z" fill="black"/>
<path d="M120.444 207C120.444 204.925 122.126 203.244 124.2 203.244C126.274 203.244 127.956 204.925 127.956 207C127.956 209.075 126.274 210.756 124.2 210.756C122.126 210.756 120.444 209.075 120.444 207Z" fill="black"/>
<path d="M119.908 248.4C119.908 246.029 121.829 244.108 124.2 244.108C126.571 244.108 128.492 246.029 128.492 248.4C128.492 250.771 126.571 252.692 124.2 252.692C121.829 252.692 119.908 250.771 119.908 248.4Z" fill="black"/>
<path d="M119.371 289.8C119.371 287.133 121.533 284.971 124.2 284.971C126.867 284.971 129.029 287.133 129.029 289.8C129.029 292.467 126.867 294.629 124.2 294.629C121.533 294.629 119.371 292.467 119.371 289.8Z" fill="black"/>
<path d="M118.834 331.2C118.834 328.237 121.237 325.835 124.2 325.835C127.163 325.835 129.565 328.237 129.565 331.2C129.565 334.163 127.163 336.565 124.2 336.565C121.237 336.565 118.834 334.163 118.834 331.2Z" fill="black"/>
<path d="M118.298 372.6C118.298 369.341 120.94 366.698 124.2 366.698C127.459 366.698 130.102 369.341 130.102 372.6C130.102 375.859 127.459 378.502 124.2 378.502C120.94 378.502 118.298 375.859 118.298 372.6Z" fill="black"/>
<path d="M117.761 414C117.761 410.444 120.644 407.562 124.2 407.562C127.756 407.562 130.639 410.444 130.639 414C130.639 417.556 127.756 420.438 124.2 420.438C120.644 420.438 117.761 417.556 117.761 414Z" fill="black"/>
<path d="M164.646 -1.78814e-07C164.646 -0.52578 165.073 -0.9522 165.6 -0.9522C166.127 -0.9522 166.554 -0.52578 166.554 -1.78814e-07C166.554 0.526608 166.127 0.953857 165.6 0.953857C165.073 0.953857 164.646 0.526608 164.646 -1.78814e-07Z" fill="black"/>
<path d="M164.169 41.4C164.169 40.6097 164.81 39.9693 165.6 39.9693C166.39 39.9693 167.031 40.6097 167.031 41.4C167.031 42.1904 166.39 42.8308 165.6 42.8308C164.81 42.8308 164.169 42.1904 164.169 41.4Z" fill="black"/>
<path d="M163.692 82.8C163.692 81.7464 164.546 80.8923 165.6 80.8923C166.654 80.8923 167.508 81.7464 167.508 82.8C167.508 83.8537 166.654 84.7078 165.6 84.7078C164.546 84.7078 163.692 83.8537 163.692 82.8Z" fill="black"/>
<path d="M163.215 124.2C163.215 122.883 164.283 121.815 165.6 121.815C166.917 121.815 167.985 122.883 167.985 124.2C167.985 125.517 166.917 126.585 165.6 126.585C164.283 126.585 163.215 125.517 163.215 124.2Z" fill="black"/>
<path d="M162.738 165.6C162.738 164.02 164.02 162.738 165.6 162.738C167.18 162.738 168.462 164.02 168.462 165.6C168.462 167.18 167.18 168.462 165.6 168.462C164.02 168.462 162.738 167.18 162.738 165.6Z" fill="black"/>
<path d="M162.261 207C162.261 205.156 163.756 203.661 165.6 203.661C167.444 203.661 168.938 205.156 168.938 207C168.938 208.844 167.444 210.339 165.6 210.339C163.756 210.339 162.261 208.844 162.261 207Z" fill="black"/>
<path d="M161.785 248.4C161.785 246.293 163.493 244.585 165.6 244.585C167.707 244.585 169.415 246.293 169.415 248.4C169.415 250.507 167.707 252.215 165.6 252.215C163.493 252.215 161.785 250.507 161.785 248.4Z" fill="black"/>
<path d="M161.308 289.8C161.308 287.429 163.229 285.508 165.6 285.508C167.971 285.508 169.892 287.429 169.892 289.8C169.892 292.171 167.971 294.092 165.6 294.092C163.229 294.092 161.308 292.171 161.308 289.8Z" fill="black"/>
<path d="M160.831 331.2C160.831 328.566 162.966 326.431 165.6 326.431C168.234 326.431 170.369 328.566 170.369 331.2C170.369 333.834 168.234 335.969 165.6 335.969C162.966 335.969 160.831 333.834 160.831 331.2Z" fill="black"/>
<path d="M160.354 372.6C160.354 369.702 162.702 367.354 165.6 367.354C168.498 367.354 170.846 369.702 170.846 372.6C170.846 375.498 168.498 377.846 165.6 377.846C162.702 377.846 160.354 375.498 160.354 372.6Z" fill="black"/>
<path d="M159.877 414C159.877 410.839 162.439 408.277 165.6 408.277C168.761 408.277 171.323 410.839 171.323 414C171.323 417.159 168.761 419.721 165.6 419.721C162.439 419.721 159.877 417.159 159.877 414Z" fill="black"/>
<path d="M206.165 8.63075e-05C206.165 -0.459454 206.539 -0.836202 207 -0.836202C207.461 -0.836202 207.835 -0.459454 207.835 8.63075e-05C207.835 0.460868 207.461 0.834717 207 0.834717C206.539 0.834717 206.165 0.460868 206.165 8.63075e-05Z" fill="black"/>
<path d="M205.748 41.4C205.748 40.7087 206.309 40.1481 207 40.1481C207.691 40.1481 208.252 40.7087 208.252 41.4C208.252 42.0914 207.691 42.652 207 42.652C206.309 42.652 205.748 42.0914 205.748 41.4Z" fill="black"/>
<path d="M205.331 82.8C205.331 81.878 206.078 81.1308 207 81.1308C207.922 81.1308 208.669 81.878 208.669 82.8C208.669 83.722 207.922 84.4692 207 84.4692C206.078 84.4692 205.331 83.722 205.331 82.8Z" fill="black"/>
<path d="M204.913 124.2C204.913 123.047 205.848 122.114 207 122.114C208.152 122.114 209.087 123.047 209.087 124.2C209.087 125.353 208.152 126.287 207 126.287C205.848 126.287 204.913 125.353 204.913 124.2Z" fill="black"/>
<path d="M204.496 165.6C204.496 164.217 205.617 163.096 207 163.096C208.383 163.096 209.504 164.217 209.504 165.6C209.504 166.983 208.383 168.104 207 168.104C205.617 168.104 204.496 166.983 204.496 165.6Z" fill="black"/>
<path d="M204.079 207C204.079 205.387 205.387 204.079 207 204.079C208.613 204.079 209.921 205.387 209.921 207C209.921 208.613 208.613 209.921 207 209.921C205.387 209.921 204.079 208.613 204.079 207Z" fill="black"/>
<path d="M203.661 248.4C203.661 246.556 205.156 245.062 207 245.062C208.844 245.062 210.339 246.556 210.339 248.4C210.339 250.244 208.844 251.739 207 251.739C205.156 251.739 203.661 250.244 203.661 248.4Z" fill="black"/>
<path d="M203.244 289.8C203.244 287.725 204.925 286.044 207 286.044C209.075 286.044 210.756 287.725 210.756 289.8C210.756 291.875 209.075 293.556 207 293.556C204.925 293.556 203.244 291.875 203.244 289.8Z" fill="black"/>
<path d="M202.827 331.2C202.827 328.895 204.695 327.027 207 327.027C209.305 327.027 211.173 328.895 211.173 331.2C211.173 333.505 209.305 335.373 207 335.373C204.695 335.373 202.827 333.505 202.827 331.2Z" fill="black"/>
<path d="M202.41 372.6C202.41 370.065 204.465 368.01 207 368.01C209.535 368.01 211.59 370.065 211.59 372.6C211.59 375.135 209.535 377.19 207 377.19C204.465 377.19 202.41 375.135 202.41 372.6Z" fill="black"/>
<path d="M201.992 414C201.992 411.234 204.234 408.992 207 408.992C209.766 408.992 212.008 411.234 212.008 414C212.008 416.766 209.766 419.009 207 419.009C204.234 419.009 201.992 416.766 201.992 414Z" fill="black"/>
<path d="M247.684 5.07832e-05C247.684 -0.393249 248.005 -0.716161 248.4 -0.716161C248.795 -0.716161 249.116 -0.393249 249.116 5.07832e-05C249.116 0.395007 248.795 0.715454 248.4 0.715454C248.005 0.715454 247.684 0.395007 247.684 5.07832e-05Z" fill="black"/>
<path d="M247.327 41.4001C247.327 40.8072 247.807 40.327 248.4 40.327C248.993 40.327 249.473 40.8072 249.473 41.4001C249.473 41.9929 248.993 42.4731 248.4 42.4731C247.807 42.4731 247.327 41.9929 247.327 41.4001Z" fill="black"/>
<path d="M246.969 82.8C246.969 82.0097 247.61 81.3693 248.4 81.3693C249.19 81.3693 249.831 82.0097 249.831 82.8C249.831 83.5904 249.19 84.2308 248.4 84.2308C247.61 84.2308 246.969 83.5904 246.969 82.8Z" fill="black"/>
<path d="M246.611 124.2C246.611 123.212 247.412 122.412 248.4 122.412C249.388 122.412 250.188 123.212 250.188 124.2C250.188 125.188 249.388 125.989 248.4 125.989C247.412 125.989 246.611 125.188 246.611 124.2Z" fill="black"/>
<path d="M246.254 165.6C246.254 164.415 247.215 163.454 248.4 163.454C249.585 163.454 250.546 164.415 250.546 165.6C250.546 166.785 249.585 167.746 248.4 167.746C247.215 167.746 246.254 166.785 246.254 165.6Z" fill="black"/>
<path d="M245.896 207C245.896 205.617 247.017 204.496 248.4 204.496C249.783 204.496 250.904 205.617 250.904 207C250.904 208.383 249.783 209.504 248.4 209.504C247.017 209.504 245.896 208.383 245.896 207Z" fill="black"/>
<path d="M245.538 248.4C245.538 246.82 246.82 245.538 248.4 245.538C249.98 245.538 251.261 246.82 251.261 248.4C251.261 249.98 249.98 251.262 248.4 251.262C246.82 251.262 245.538 249.98 245.538 248.4Z" fill="black"/>
<path d="M245.181 289.8C245.181 288.022 246.622 286.581 248.4 286.581C250.178 286.581 251.619 288.022 251.619 289.8C251.619 291.578 250.178 293.019 248.4 293.019C246.622 293.019 245.181 291.578 245.181 289.8Z" fill="black"/>
<path d="M244.823 331.2C244.823 329.225 246.425 327.623 248.4 327.623C250.375 327.623 251.977 329.225 251.977 331.2C251.977 333.175 250.375 334.777 248.4 334.777C246.425 334.777 244.823 333.175 244.823 331.2Z" fill="black"/>
<path d="M244.465 372.6C244.465 370.427 246.227 368.665 248.4 368.665C250.573 368.665 252.335 370.427 252.335 372.6C252.335 374.773 250.573 376.535 248.4 376.535C246.227 376.535 244.465 374.773 244.465 372.6Z" fill="black"/>
<path d="M244.108 414C244.108 411.629 246.029 409.708 248.4 409.708C250.771 409.708 252.692 411.629 252.692 414C252.692 416.372 250.771 418.293 248.4 418.293C246.029 418.293 244.108 416.372 244.108 414Z" fill="black"/>
<path d="M289.204 1.51992e-05C289.204 -0.331185 289.471 -0.596161 289.8 -0.596161C290.129 -0.596161 290.396 -0.331185 290.396 1.51992e-05C290.396 0.329145 290.129 0.596191 289.8 0.596191C289.471 0.596191 289.204 0.329145 289.204 1.51992e-05Z" fill="black"/>
<path d="M288.906 41.4C288.906 40.9061 289.306 40.5057 289.8 40.5057C290.294 40.5057 290.694 40.9061 290.694 41.4C290.694 41.8939 290.294 42.2942 289.8 42.2942C289.306 42.2942 288.906 41.8939 288.906 41.4Z" fill="black"/>
<path d="M288.608 82.8001C288.608 82.1414 289.141 81.6078 289.8 81.6078C290.459 81.6078 290.992 82.1414 290.992 82.8001C290.992 83.4588 290.459 83.9924 289.8 83.9924C289.141 83.9924 288.608 83.4588 288.608 82.8001Z" fill="black"/>
<path d="M288.31 124.2C288.31 123.377 288.977 122.71 289.8 122.71C290.623 122.71 291.29 123.377 291.29 124.2C291.29 125.023 290.623 125.69 289.8 125.69C288.977 125.69 288.31 125.023 288.31 124.2Z" fill="black"/>
<path d="M288.011 165.6C288.011 164.612 288.812 163.812 289.8 163.812C290.788 163.812 291.588 164.612 291.588 165.6C291.588 166.588 290.788 167.389 289.8 167.389C288.812 167.389 288.011 166.588 288.011 165.6Z" fill="black"/>
<path d="M287.713 207C287.713 205.848 288.648 204.913 289.8 204.913C290.952 204.913 291.886 205.848 291.886 207C291.886 208.152 290.952 209.087 289.8 209.087C288.648 209.087 287.713 208.152 287.713 207Z" fill="black"/>
<path d="M287.415 248.4C287.415 247.083 288.483 246.015 289.8 246.015C291.117 246.015 292.185 247.083 292.185 248.4C292.185 249.717 291.117 250.785 289.8 250.785C288.483 250.785 287.415 249.717 287.415 248.4Z" fill="black"/>
<path d="M287.117 289.8C287.117 288.318 288.318 287.117 289.8 287.117C291.282 287.117 292.483 288.318 292.483 289.8C292.483 291.282 291.282 292.483 289.8 292.483C288.318 292.483 287.117 291.282 287.117 289.8Z" fill="black"/>
<path d="M286.819 331.2C286.819 329.554 288.153 328.219 289.8 328.219C291.446 328.219 292.781 329.554 292.781 331.2C292.781 332.846 291.446 334.181 289.8 334.181C288.153 334.181 286.819 332.846 286.819 331.2Z" fill="black"/>
<path d="M286.521 372.6C286.521 370.789 287.989 369.321 289.8 369.321C291.611 369.321 293.079 370.789 293.079 372.6C293.079 374.411 291.611 375.879 289.8 375.879C287.989 375.879 286.521 374.411 286.521 372.6Z" fill="black"/>
<path d="M286.223 414C286.223 412.025 287.825 410.423 289.8 410.423C291.775 410.423 293.377 412.025 293.377 414C293.377 415.975 291.775 417.577 289.8 417.577C287.825 417.577 286.223 415.975 286.223 414Z" fill="black"/>
<path d="M330.723 2.01166e-05C330.723 -0.26494 330.936 -0.47608 331.2 -0.47608C331.464 -0.47608 331.677 -0.26494 331.677 2.01166e-05C331.677 0.263324 331.464 0.476929 331.2 0.476929C330.936 0.476929 330.723 0.263324 330.723 2.01166e-05Z" fill="black"/>
<path d="M330.484 41.4001C330.484 41.0051 330.805 40.6847 331.2 40.6847C331.595 40.6847 331.916 41.0051 331.916 41.4001C331.916 41.795 331.595 42.1155 331.2 42.1155C330.805 42.1155 330.484 41.795 330.484 41.4001Z" fill="black"/>
<path d="M330.246 82.8C330.246 82.2734 330.673 81.8462 331.2 81.8462C331.727 81.8462 332.154 82.2734 332.154 82.8C332.154 83.3267 331.727 83.7539 331.2 83.7539C330.673 83.7539 330.246 83.3267 330.246 82.8Z" fill="black"/>
<path d="M330.008 124.2C330.008 123.541 330.541 123.008 331.2 123.008C331.859 123.008 332.392 123.541 332.392 124.2C332.392 124.859 331.859 125.392 331.2 125.392C330.541 125.392 330.008 124.859 330.008 124.2Z" fill="black"/>
<path d="M329.769 165.6C329.769 164.81 330.41 164.169 331.2 164.169C331.99 164.169 332.631 164.81 332.631 165.6C332.631 166.39 331.99 167.031 331.2 167.031C330.41 167.031 329.769 166.39 329.769 165.6Z" fill="black"/>
<path d="M329.531 207C329.531 206.078 330.278 205.331 331.2 205.331C332.122 205.331 332.869 206.078 332.869 207C332.869 207.922 332.122 208.669 331.2 208.669C330.278 208.669 329.531 207.922 329.531 207Z" fill="black"/>
<path d="M329.292 248.4C329.292 247.346 330.146 246.492 331.2 246.492C332.254 246.492 333.108 247.346 333.108 248.4C333.108 249.454 332.254 250.308 331.2 250.308C330.146 250.308 329.292 249.454 329.292 248.4Z" fill="black"/>
<path d="M329.054 289.8C329.054 288.615 330.015 287.654 331.2 287.654C332.385 287.654 333.346 288.615 333.346 289.8C333.346 290.985 332.385 291.946 331.2 291.946C330.015 291.946 329.054 290.985 329.054 289.8Z" fill="black"/>
<path d="M328.815 331.2C328.815 329.883 329.883 328.815 331.2 328.815C332.517 328.815 333.585 329.883 333.585 331.2C333.585 332.517 332.517 333.585 331.2 333.585C329.883 333.585 328.815 332.517 328.815 331.2Z" fill="black"/>
<path d="M328.577 372.6C328.577 371.151 329.751 369.977 331.2 369.977C332.649 369.977 333.823 371.151 333.823 372.6C333.823 374.049 332.649 375.223 331.2 375.223C329.751 375.223 328.577 374.049 328.577 372.6Z" fill="black"/>
<path d="M328.338 414C328.338 412.42 329.62 411.138 331.2 411.138C332.78 411.138 334.062 412.42 334.062 414C334.062 415.581 332.78 416.861 331.2 416.861C329.62 416.861 328.338 415.581 328.338 414Z" fill="black"/>
<path d="M372.242 -1.54674e-05C372.242 -0.198735 372.402 -0.356039 372.6 -0.356039C372.798 -0.356039 372.958 -0.198735 372.958 -1.54674e-05C372.958 0.197463 372.798 0.357666 372.6 0.357666C372.402 0.357666 372.242 0.197463 372.242 -1.54674e-05Z" fill="black"/>
<path d="M372.063 41.4C372.063 41.1036 372.304 40.8634 372.6 40.8634C372.896 40.8634 373.137 41.1036 373.137 41.4C373.137 41.6964 372.896 41.9365 372.6 41.9365C372.304 41.9365 372.063 41.6964 372.063 41.4Z" fill="black"/>
<path d="M371.884 82.8C371.884 82.405 372.205 82.0846 372.6 82.0846C372.995 82.0846 373.316 82.405 373.316 82.8C373.316 83.195 372.995 83.5154 372.6 83.5154C372.205 83.5154 371.884 83.195 371.884 82.8Z" fill="black"/>
<path d="M371.706 124.2C371.706 123.706 372.106 123.306 372.6 123.306C373.094 123.306 373.494 123.706 373.494 124.2C373.494 124.694 373.094 125.094 372.6 125.094C372.106 125.094 371.706 124.694 371.706 124.2Z" fill="black"/>
<path d="M371.527 165.6C371.527 165.007 372.007 164.527 372.6 164.527C373.193 164.527 373.673 165.007 373.673 165.6C373.673 166.193 373.193 166.673 372.6 166.673C372.007 166.673 371.527 166.193 371.527 165.6Z" fill="black"/>
<path d="M371.348 207C371.348 206.309 371.909 205.748 372.6 205.748C373.291 205.748 373.852 206.309 373.852 207C373.852 207.691 373.291 208.252 372.6 208.252C371.909 208.252 371.348 207.691 371.348 207Z" fill="black"/>
<path d="M371.169 248.4C371.169 247.61 371.81 246.969 372.6 246.969C373.39 246.969 374.031 247.61 374.031 248.4C374.031 249.19 373.39 249.831 372.6 249.831C371.81 249.831 371.169 249.19 371.169 248.4Z" fill="black"/>
<path d="M370.99 289.8C370.99 288.911 371.711 288.19 372.6 288.19C373.489 288.19 374.209 288.911 374.209 289.8C374.209 290.689 373.489 291.41 372.6 291.41C371.711 291.41 370.99 290.689 370.99 289.8Z" fill="black"/>
<path d="M370.812 331.2C370.812 330.212 371.612 329.412 372.6 329.412C373.588 329.412 374.388 330.212 374.388 331.2C374.388 332.188 373.588 332.989 372.6 332.989C371.612 332.989 370.812 332.188 370.812 331.2Z" fill="black"/>
<path d="M370.633 372.6C370.633 371.514 371.514 370.633 372.6 370.633C373.686 370.633 374.567 371.514 374.567 372.6C374.567 373.686 373.686 374.567 372.6 374.567C371.514 374.567 370.633 373.686 370.633 372.6Z" fill="black"/>
<path d="M370.454 414C370.454 412.815 371.415 411.854 372.6 411.854C373.785 411.854 374.746 412.815 374.746 414C374.746 415.184 373.785 416.145 372.6 416.145C371.415 416.145 370.454 415.184 370.454 414Z" fill="black"/>
<path d="M413.761 7.10934e-05C413.761 -0.132409 413.868 -0.240041 414 -0.240041C414.132 -0.240041 414.24 -0.132409 414.24 7.10934e-05C414.24 0.131723 414.132 0.238525 414 0.238525C413.868 0.238525 413.761 0.131723 413.761 7.10934e-05Z" fill="black"/>
<path d="M413.642 41.4C413.642 41.2025 413.802 41.0423 414 41.0423C414.199 41.0423 414.356 41.2025 414.356 41.4C414.356 41.5975 414.199 41.7577 414 41.7577C413.802 41.7577 413.642 41.5975 413.642 41.4Z" fill="black"/>
<path d="M413.523 82.8C413.523 82.5367 413.736 82.3231 414 82.3231C414.265 82.3231 414.476 82.5367 414.476 82.8C414.476 83.0634 414.265 83.277 414 83.277C413.736 83.277 413.523 83.0634 413.523 82.8Z" fill="black"/>
<path d="M413.404 124.2C413.404 123.871 413.671 123.604 414 123.604C414.327 123.604 414.596 123.871 414.596 124.2C414.596 124.529 414.327 124.796 414 124.796C413.671 124.796 413.404 124.529 413.404 124.2Z" fill="black"/>
<path d="M413.284 165.6C413.284 165.205 413.605 164.885 414 164.885C414.393 164.885 414.716 165.205 414.716 165.6C414.716 165.995 414.393 166.315 414 166.315C413.605 166.315 413.284 165.995 413.284 165.6Z" fill="black"/>
<path d="M413.165 207C413.165 206.539 413.539 206.165 414 206.165C414.459 206.165 414.836 206.539 414.836 207C414.836 207.461 414.459 207.835 414 207.835C413.539 207.835 413.165 207.461 413.165 207Z" fill="black"/>
<path d="M413.046 248.4C413.046 247.873 413.473 247.446 414 247.446C414.526 247.446 414.952 247.873 414.952 248.4C414.952 248.927 414.526 249.354 414 249.354C413.473 249.354 413.046 248.927 413.046 248.4Z" fill="black"/>
<path d="M412.927 289.8C412.927 289.207 413.407 288.727 414 288.727C414.592 288.727 415.072 289.207 415.072 289.8C415.072 290.393 414.592 290.873 414 290.873C413.407 290.873 412.927 290.393 412.927 289.8Z" fill="black"/>
<path d="M412.808 331.2C412.808 330.541 413.341 330.008 414 330.008C414.658 330.008 415.192 330.541 415.192 331.2C415.192 331.859 414.658 332.392 414 332.392C413.341 332.392 412.808 331.859 412.808 331.2Z" fill="black"/>
<path d="M412.688 372.6C412.688 371.876 413.276 371.289 414 371.289C414.725 371.289 415.312 371.876 415.312 372.6C415.312 373.325 414.725 373.912 414 373.912C413.276 373.912 412.688 373.325 412.688 372.6Z" fill="black"/>
<path d="M412.569 414C412.569 413.21 413.21 412.569 414 412.569C414.791 412.569 415.432 413.21 415.432 414C415.432 414.791 414.791 415.432 414 415.432C413.21 415.432 412.569 414.791 412.569 414Z" fill="black"/>
</g>
<defs>
<clipPath id="clip0_30_1912">
<rect width="414" height="414" fill="white"/>
</clipPath>
</defs>
</svg>
