<svg xmlns="http://www.w3.org/2000/svg" version="1.1" xmlns:xlink="http://www.w3.org/1999/xlink" xmlns:svgjs="http://svgjs.dev/svgjs" width="1000" height="1000" viewBox="0 0 1000 1000"><g transform="matrix(1,0,0,1,0,0)"><svg viewBox="0 0 280 280" data-background-color="#e6b17e" preserveAspectRatio="xMidYMid meet" height="1000" width="1000" xmlns="http://www.w3.org/2000/svg" xmlns:xlink="http://www.w3.org/1999/xlink"><g id="tight-bounds" transform="matrix(1,0,0,1,0,0)"><svg viewBox="0 0 280 280" height="280" width="280"><g><svg viewBox="0 0 280 280" height="280" width="280"><g><svg viewBox="0 0 280 280" height="280" width="280"><g id="textblocktransform"><svg viewBox="0 0 280 280" height="280" width="280" id="textblock"><g><svg viewBox="0 0 280 280" height="280" width="280"><g transform="matrix(1,0,0,1,87.42727014321021,74.00336708925556)"><svg viewBox="0 0 105.14545971357958 131.99326582148888" height="131.99326582148888" width="105.14545971357958"><g><svg xmlns="http://www.w3.org/2000/svg" viewBox="7.736845867856884 2.028408854951231 44.526486418406485 55.89586439520411" x="0" y="0" height="131.99326582148888" width="105.14545971357958" class="icon-kg-0" data-fill-palette-color="accent" id="kg-0"><path d="M52.19 57.28a0.953 0.953 0 0 1-0.93 0.644H49.23l1.261-6.291a9.933 9.933 0 0 1 0.407 0.916L52.217 56.666a0.828 0.828 0 0 1-0.027 0.614Zm-44.379 0.003a0.833 0.833 0 0 1-0.029-0.615l1.304-4.072a10.151 10.151 0 0 1 0.423-0.961l1.261 6.289H8.74a0.985 0.985 0 0 1-0.88-0.525A0.999 0.999 0 0 1 7.811 57.283Zm13.667-5.019a1.972 1.972 0 0 0 0.879 0.6l2.891 5.06H22.784Zm3.042 0.354l2.591-0.737a4.367 4.367 0 0 0 5.778 0l2.591 0.737-3.032 5.306H27.552Zm13.123 0.246a2.014 2.014 0 0 0 0.561-0.298 2.039 2.039 0 0 0 0.318-0.302l-1.306 5.66H34.752ZM34.37 39.17a6.935 6.935 0 0 1-8.74 0c-0.72-0.59-1.36-1.15-1.97-1.72 0.01 0.1 0.03 0.2 0.04 0.29a23.465 23.465 0 0 1 0.17 2.66L30 45.66l6.13-5.26a23.465 23.465 0 0 1 0.17-2.66c0.01-0.1 0.03-0.19 0.04-0.29C35.73 38.02 35.09 38.58 34.37 39.17ZM13.33 47.53c-1.58 1.15-1.82 1.35-1.9 1.43-0.12 0.12-0.23 0.26-0.34 0.38l1.72 8.58h2.92Zm12.74 1.31L23 47.04v3.93l3.07-0.87a3.287 3.287 0 0 1-0.07-0.63A3.379 3.379 0 0 1 26.07 48.84Zm0 0L23 47.04v3.93l3.07-0.87a3.287 3.287 0 0 1-0.07-0.63A3.379 3.379 0 0 1 26.07 48.84ZM18.02 46a10.414 10.414 0 0 0-2.85 0.59l2.61 11.33h2.95L18.03 46.2A0.672 0.672 0 0 1 18.02 46Zm8.05 2.84L23 47.04v3.93l3.07-0.87a3.287 3.287 0 0 1-0.07-0.63A3.379 3.379 0 0 1 26.07 48.84Zm0 0L23 47.04v3.93l3.07-0.87a3.287 3.287 0 0 1-0.07-0.63A3.379 3.379 0 0 1 26.07 48.84ZM30 47.97c-1.08 0-2 0.69-2 1.5 0 0.82 0.92 1.5 2 1.5s2-0.68 2-1.5C32 48.66 31.08 47.97 30 47.97ZM41.98 46a0.672 0.672 0 0 1-0.01 0.2l-2.7 11.72h2.95l2.61-11.33A10.414 10.414 0 0 0 41.98 46Zm6.59 2.96c-0.08-0.08-0.32-0.28-1.9-1.43l-2.4 10.39h2.92l1.72-8.58C48.8 49.22 48.69 49.08 48.57 48.96ZM30 47.97c-1.08 0-2 0.69-2 1.5 0 0.82 0.92 1.5 2 1.5s2-0.68 2-1.5C32 48.66 31.08 47.97 30 47.97Zm0 0c-1.08 0-2 0.69-2 1.5 0 0.82 0.92 1.5 2 1.5s2-0.68 2-1.5C32 48.66 31.08 47.97 30 47.97Zm3.93 0.87a3.379 3.379 0 0 1 0.07 0.63 3.287 3.287 0 0 1-0.07 0.63l3.07 0.87V47.04ZM30 47.97c-1.08 0-2 0.69-2 1.5 0 0.82 0.92 1.5 2 1.5s2-0.68 2-1.5C32 48.66 31.08 47.97 30 47.97Zm0 0c-1.08 0-2 0.69-2 1.5 0 0.82 0.92 1.5 2 1.5s2-0.68 2-1.5C32 48.66 31.08 47.97 30 47.97Zm-3.93 0.87L23 47.04v3.93l3.07-0.87a3.287 3.287 0 0 1-0.07-0.63A3.379 3.379 0 0 1 26.07 48.84Zm10.88-6.5L32.09 46.5a3.926 3.926 0 0 1 0.84 0.61l3.38-1.98a0.835 0.835 0 0 1 0.31-0.12 2.001 2.001 0 0 1 1.65 0.42 1.971 1.971 0 0 1 0.68 1.11l0.8-1.4Zm4.86-20.86a0.829 0.829 0 0 1-0.21 0.06 0.972 0.972 0 0 0-0.15 0.1 23.064 23.064 0 0 0-0.57 5.78 3.038 3.038 0 0 0 0.44 0.47c0.24-0.44 0.68-1.84 0.68-4.97A3.861 3.861 0 0 0 41.81 21.48ZM41.12 2.16c-0.78-0.47-2.37 0.4-4.06 1.33C34.99 4.63 32.64 5.92 30 5.92c-11.52 0-13 4.01-13 7.5a8.197 8.197 0 0 0 0.1 1.36 10.33 10.33 0 0 0 1.46 4.08l4.55-5.81a2.676 2.676 0 0 1 3.84-0.56 5.011 5.011 0 0 0 6.09 0.01 2.676 2.676 0 0 1 3.85 0.55l4.29 5.48 0.46 0.01A10.377 10.377 0 0 0 43 13.42C43 5.03 41.98 2.66 41.12 2.16ZM18.55 21.65a1.277 1.277 0 0 0-0.19-0.13 1.351 1.351 0 0 1-0.17-0.04A3.815 3.815 0 0 0 18 22.92c0 3.13 0.44 4.53 0.68 4.97a3.038 3.038 0 0 0 0.44-0.47A22.985 22.985 0 0 0 18.55 21.65Zm16.77-7.36a0.728 0.728 0 0 0-1.05-0.21 7.021 7.021 0 0 1-8.53 0.01 0.729 0.729 0 0 0-1.06 0.2l-4.46 5.7c0.01 0.04 0.02 0.09 0.03 0.14a1.033 1.033 0 0 0 0.04 0.14v0.03A24.901 24.901 0 0 1 21.03 29.2c-0.02 0.2-0.03 0.42-0.03 0.64 0 1.94 2.09 4.7 5.89 7.77a4.938 4.938 0 0 0 6.22 0.01c3.8-3.08 5.89-5.84 5.89-7.78q0-0.33-0.03-0.66a25.021 25.021 0 0 1 0.67-8.62c0.01-0.03 0.02-0.09 0.04-0.15l0.05-0.18c0.02-0.08 0.03-0.16 0.05-0.25ZM29 28.92h2a1 1 0 0 1 0 2H29a1 1 0 0 1 0-2Zm-3-5v1a1 1 0 0 1-2 0v-1H23a1 1 0 0 1 0-2h4a1 1 0 0 1 0 2Zm6 11H28a1 1 0 0 1 0-2h4a1 1 0 0 1 0 2Zm5-11H36v1a1 1 0 0 1-2 0v-1H33a1 1 0 0 1 0-2h4a1 1 0 0 1 0 2ZM23.05 42.34l-2.8 2.8 0.8 1.4a1.998 1.998 0 0 1 2.33-1.53 0.835 0.835 0 0 1 0.31 0.12l3.38 1.98a3.926 3.926 0 0 1 0.84-0.61Z" fill="#000000" data-fill-palette-color="accent"></path></svg></g></svg></g><g><path d="M23.776 101.976l-2.443 7.629-18.027-5.774 2.333-7.286c0.602-1.879 1.458-3.098 2.569-3.659 1.113-0.567 2.422-0.61 3.927-0.128v0c0.694 0.222 1.278 0.518 1.752 0.886 0.467 0.366 0.82 0.786 1.058 1.259 0.23 0.478 0.325 1.003 0.286 1.575v0c0.215-0.357 0.494-0.686 0.836-0.988 0.336-0.304 0.735-0.537 1.198-0.699 0.463-0.162 0.973-0.244 1.53-0.246 0.55-0.004 1.149 0.097 1.797 0.305v0c1.198 0.384 2.097 0.899 2.698 1.546 0.595 0.645 0.922 1.436 0.983 2.372 0.057 0.928-0.109 1.997-0.497 3.208zM15.099 102.975l3.819 1.223 1.057-3.299c0.115-0.36 0.138-0.689 0.067-0.986-0.064-0.295-0.216-0.553-0.456-0.773-0.246-0.223-0.585-0.404-1.017-0.543v0c-0.393-0.126-0.749-0.164-1.068-0.114-0.319 0.049-0.592 0.171-0.821 0.365-0.235 0.192-0.41 0.468-0.525 0.827v0zM8.422 100.836l3.495 1.12 0.988-3.083c0.134-0.419 0.072-0.8-0.186-1.143-0.252-0.34-0.63-0.591-1.134-0.753v0c-0.661-0.212-1.163-0.221-1.507-0.028-0.337 0.195-0.562 0.47-0.675 0.824v0z" fill="#000000" data-fill-palette-color="primary"></path><path d="M28.508 90.382l-2.028 4.058-14.357-13.616 2.46-4.925 19.51 3.305-2.042 4.086-3.513-0.672-2.687 5.377zM16.724 80.08l6.051 5.237 1.774-3.551z" fill="#000000" data-fill-palette-color="primary"></path><path d="M38.202 73.128l-2.505 3.633-15.585-10.744 4.518-6.553c0.453-0.656 0.952-1.205 1.499-1.647 0.537-0.44 1.14-0.733 1.81-0.881 0.67-0.148 1.415-0.109 2.237 0.115 0.816 0.221 1.728 0.678 2.736 1.372v0c0.685 0.472 1.227 0.938 1.628 1.399 0.395 0.456 0.683 0.905 0.863 1.346 0.184 0.436 0.287 0.861 0.309 1.277 0.022 0.416 0.011 0.826-0.034 1.229v0l8.054 1.433-2.546 3.693-7.152-1.488c-0.098 0.141-0.21 0.298-0.336 0.47-0.132 0.168-0.255 0.333-0.368 0.497-0.117 0.17-0.236 0.342-0.357 0.518-0.121 0.175-0.234 0.34-0.34 0.492v0zM25.877 64.631l3.887 2.68 1.563-2.266c0.176-0.255 0.296-0.502 0.36-0.741 0.074-0.241 0.081-0.487 0.02-0.737-0.07-0.249-0.205-0.496-0.403-0.742-0.208-0.243-0.498-0.494-0.872-0.751v0c-0.379-0.261-0.717-0.444-1.012-0.548-0.294-0.094-0.553-0.118-0.777-0.072-0.233 0.048-0.449 0.149-0.648 0.304-0.195 0.149-0.38 0.352-0.556 0.607v0z" fill="#000000" data-fill-palette-color="primary"></path><path d="M51.288 56.871l-5.42 5.899-13.94-12.806 5.176-5.634c1.335-1.453 2.624-2.201 3.867-2.243 1.248-0.048 2.454 0.463 3.618 1.532v0c0.537 0.493 0.943 1.006 1.219 1.539 0.271 0.529 0.415 1.058 0.432 1.587 0.008 0.53-0.126 1.046-0.402 1.55v0c0.345-0.234 0.736-0.416 1.174-0.546 0.432-0.135 0.892-0.179 1.381-0.132 0.488 0.047 0.986 0.187 1.492 0.418 0.501 0.227 1.002 0.57 1.503 1.031v0c0.926 0.851 1.526 1.696 1.8 2.536 0.269 0.835 0.235 1.69-0.103 2.566-0.338 0.866-0.937 1.767-1.797 2.703zM42.992 54.136l2.954 2.713 2.343-2.551c0.256-0.278 0.414-0.567 0.474-0.866 0.065-0.295 0.036-0.593-0.089-0.894-0.13-0.306-0.362-0.612-0.695-0.919v0c-0.304-0.279-0.611-0.463-0.921-0.552-0.31-0.089-0.61-0.093-0.898-0.013-0.294 0.076-0.568 0.253-0.824 0.531v0zM37.829 49.393l2.703 2.483 2.19-2.384c0.298-0.324 0.401-0.696 0.311-1.115-0.086-0.415-0.323-0.801-0.714-1.159v0c-0.511-0.47-0.963-0.689-1.355-0.658-0.388 0.036-0.707 0.191-0.959 0.464v0z" fill="#000000" data-fill-palette-color="primary"></path><path d="M61.76 47.352v0c-0.313 0.258-0.709 0.528-1.191 0.809-0.482 0.291-1.008 0.49-1.58 0.597-0.572 0.107-1.176 0.044-1.813-0.188-0.632-0.236-1.267-0.741-1.906-1.514v0l-6.48-7.846c-0.565-0.684-0.927-1.343-1.086-1.978-0.164-0.641-0.183-1.226-0.06-1.756 0.124-0.53 0.349-1.024 0.676-1.481 0.322-0.462 0.68-0.856 1.071-1.179v0c1.049-0.867 1.976-1.601 2.781-2.203 0.8-0.607 1.509-1.135 2.128-1.585 0.629-0.448 1.194-0.848 1.696-1.2v0l2.371 2.869-5.35 4.419c-0.355 0.293-0.563 0.603-0.623 0.93-0.06 0.326 0.056 0.667 0.349 1.022v0l1.333 1.613 5.666-4.359 2.213 2.679-5.364 4.725 1.267 1.534c0.241 0.291 0.472 0.479 0.693 0.564 0.231 0.085 0.456 0.104 0.676 0.057 0.225-0.052 0.43-0.154 0.615-0.308v0l5.445-4.497 2.357 2.853c-0.525 0.541-1.121 1.131-1.787 1.771-0.661 0.635-1.348 1.265-2.062 1.891-0.713 0.616-1.391 1.203-2.035 1.761z" fill="#000000" data-fill-palette-color="primary"></path><path d="M73.687 38.534l-3.891 2.332-4.788-19.199 4.722-2.831 14.675 13.274-3.917 2.348-2.602-2.456-5.156 3.09zM69.288 23.513l2.288 7.668 3.404-2.041z" fill="#000000" data-fill-palette-color="primary"></path><path d="M91.136 29.194l-4.065 1.717-7.367-17.437 7.332-3.097c0.734-0.31 1.451-0.505 2.148-0.584 0.689-0.082 1.356-0.006 2 0.23 0.644 0.235 1.252 0.668 1.825 1.299 0.57 0.625 1.093 1.501 1.569 2.628v0c0.324 0.766 0.531 1.451 0.622 2.054 0.088 0.597 0.089 1.13 0.004 1.599-0.079 0.466-0.221 0.881-0.426 1.243-0.205 0.363-0.435 0.702-0.689 1.019v0l6.021 5.537-4.131 1.745-5.232-5.098c-0.158 0.067-0.337 0.139-0.536 0.215-0.202 0.07-0.394 0.144-0.578 0.222-0.19 0.08-0.383 0.162-0.579 0.245-0.196 0.083-0.38 0.161-0.551 0.233v0zM85.309 15.404l1.838 4.35 2.536-1.072c0.285-0.12 0.519-0.264 0.702-0.431 0.192-0.163 0.33-0.367 0.413-0.611 0.074-0.248 0.094-0.528 0.059-0.842-0.044-0.317-0.155-0.684-0.332-1.102v0c-0.179-0.424-0.366-0.76-0.559-1.006-0.197-0.237-0.403-0.397-0.616-0.478-0.222-0.085-0.459-0.116-0.71-0.092-0.245 0.021-0.51 0.092-0.795 0.212v0z" fill="#000000" data-fill-palette-color="primary"></path><path d="M107.611 23.171l-4.22 1.289-5.529-18.104 4.221-1.289z" fill="#000000" data-fill-palette-color="primary"></path><path d="M115.024 21.66l-4.467 0.787 2.392-19.642 5.422-0.955 8.96 17.643-4.498 0.792-1.552-3.223-5.92 1.043zM116.286 6.06l-0.605 7.979 3.91-0.689z" fill="#000000" data-fill-palette-color="primary"></path><path d="M148.302 19.397l-5.501-0.237-4.943-19.16 4.563 0.197 3.357 14.313 4.585-13.971 4.511 0.194z" fill="#000000" data-fill-palette-color="primary"></path><path d="M159.26 20.615l-4.457-0.846 9.192-17.522 5.409 1.027 2.132 19.672-4.487-0.852-0.31-3.564-5.905-1.121zM165.964 6.472l-3.391 7.248 3.9 0.74z" fill="#000000" data-fill-palette-color="primary"></path><path d="M178.514 25.277l-4.152-1.432 6.171-17.895 3.304 1.139 3.118 13.191 3.734-10.828 4.172 1.438-6.171 17.895-3.333-1.149-3.119-13.159z" fill="#000000" data-fill-palette-color="primary"></path><path d="M196.851 33.165v0c-1.039-0.549-1.779-1.208-2.221-1.978-0.435-0.766-0.637-1.627-0.606-2.582 0.031-0.956 0.244-1.985 0.641-3.09 0.394-1.113 0.912-2.278 1.553-3.493v0c0.693-1.313 1.403-2.45 2.129-3.412 0.732-0.958 1.518-1.689 2.359-2.193 0.845-0.51 1.791-0.741 2.838-0.693 1.045 0.039 2.229 0.408 3.554 1.108v0c0.827 0.437 1.541 0.857 2.145 1.26 0.603 0.404 1.155 0.816 1.655 1.236 0.495 0.417 0.997 0.857 1.507 1.321v0l-1.594 3.017c-0.312-0.219-0.71-0.488-1.195-0.806-0.488-0.312-1.042-0.655-1.66-1.028-0.619-0.374-1.281-0.746-1.986-1.119v0c-0.906-0.478-1.665-0.689-2.278-0.632-0.622 0.06-1.201 0.419-1.735 1.077-0.54 0.655-1.152 1.63-1.837 2.925v0c-0.53 1.003-0.919 1.843-1.167 2.52-0.255 0.674-0.378 1.238-0.37 1.693 0.005 0.461 0.136 0.845 0.394 1.153 0.251 0.304 0.602 0.575 1.052 0.812v0c0.583 0.308 1.141 0.556 1.671 0.743 0.528 0.178 0.954 0.306 1.278 0.383v0l1.406-2.662-2.634-1.391 1.632-3.091c0.351 0.131 0.756 0.298 1.216 0.502 0.46 0.204 0.942 0.424 1.447 0.66 0.499 0.233 0.952 0.456 1.359 0.671v0c0.523 0.276 0.981 0.526 1.376 0.75 0.398 0.218 0.753 0.429 1.065 0.633v0l-5.133 9.718-2.935-1.55 0.077-1.405c-0.536 0.043-1.268 0.002-2.197-0.123-0.923-0.122-1.858-0.433-2.806-0.934z" fill="#000000" data-fill-palette-color="primary"></path><path d="M213.865 43.93v0c-0.846-0.624-1.586-1.272-2.218-1.943-0.634-0.681-1.093-1.413-1.378-2.195-0.285-0.783-0.338-1.62-0.159-2.513 0.18-0.892 0.653-1.858 1.421-2.898v0l7.57-10.264 3.551 2.619-7.558 10.248c-0.335 0.454-0.504 0.892-0.509 1.315-0.009 0.429 0.128 0.846 0.41 1.251 0.278 0.41 0.683 0.811 1.214 1.202v0c0.52 0.384 1.017 0.648 1.491 0.793 0.476 0.154 0.914 0.162 1.316 0.022 0.403-0.13 0.772-0.421 1.106-0.875v0l7.558-10.247 3.551 2.619-7.57 10.264c-0.767 1.04-1.547 1.78-2.341 2.219-0.799 0.435-1.618 0.63-2.455 0.585-0.832-0.041-1.661-0.26-2.488-0.657-0.823-0.402-1.66-0.917-2.512-1.545z" fill="#000000" data-fill-palette-color="primary"></path><path d="M224.485 52.767l-3.197-3.219 17.493-9.249 3.879 3.906-9.369 17.428-3.219-3.24 1.76-3.115-4.235-4.265zM238.014 44.896l-6.896 4.059 2.797 2.817z" fill="#000000" data-fill-palette-color="primary"></path><path d="M237.731 67.469l-2.64-3.536 15.166-11.327 4.763 6.377c0.477 0.639 0.837 1.288 1.08 1.947 0.245 0.649 0.33 1.315 0.256 1.997-0.074 0.682-0.349 1.376-0.825 2.083-0.47 0.703-1.195 1.42-2.175 2.152v0c-0.666 0.498-1.282 0.863-1.846 1.096-0.559 0.228-1.076 0.357-1.551 0.386-0.472 0.035-0.908-0.004-1.31-0.116-0.401-0.112-0.786-0.254-1.154-0.425v0l-3.934 7.172-2.684-3.593 3.698-6.301c-0.103-0.138-0.215-0.294-0.337-0.468-0.116-0.179-0.234-0.348-0.354-0.508-0.123-0.165-0.249-0.333-0.376-0.504-0.128-0.171-0.247-0.33-0.358-0.479v0zM249.725 58.511l-3.783 2.825 1.647 2.206c0.185 0.248 0.381 0.441 0.587 0.579 0.205 0.148 0.435 0.233 0.692 0.255 0.258 0.013 0.536-0.035 0.831-0.145 0.297-0.119 0.627-0.314 0.991-0.586v0c0.369-0.276 0.65-0.537 0.843-0.784 0.183-0.248 0.289-0.486 0.317-0.713 0.029-0.236 0.002-0.474-0.081-0.711-0.079-0.232-0.211-0.473-0.396-0.721v0z" fill="#000000" data-fill-palette-color="primary"></path><path d="M248.983 85.217l-3.91-7.192 16.63-9.042 3.911 7.192c0.64 1.178 0.954 2.259 0.941 3.243-0.006 0.981-0.261 1.902-0.763 2.762-0.5 0.851-1.212 1.641-2.137 2.371-0.916 0.733-1.972 1.424-3.168 2.075v0c-1.908 1.037-3.59 1.67-5.046 1.898-1.453 0.234-2.71 0.073-3.772-0.484-1.068-0.554-1.963-1.495-2.686-2.823zM260.333 74.751l-9.683 5.265 1.596 2.934c0.332 0.61 0.766 0.999 1.304 1.169 0.535 0.163 1.204 0.128 2.008-0.106 0.804-0.234 1.749-0.646 2.836-1.237v0c1.033-0.561 1.838-1.074 2.416-1.536 0.587-0.46 0.989-0.886 1.206-1.278 0.223-0.395 0.318-0.775 0.284-1.14-0.037-0.371-0.161-0.75-0.371-1.136v0z" fill="#000000" data-fill-palette-color="primary"></path><path d="M254.454 97.354l-1.518-4.275 19.766-0.904 1.843 5.189-15.91 11.765-1.528-4.304 2.92-2.066-2.011-5.664zM270.047 96.006l-7.968 0.73 1.328 3.74z" fill="#000000" data-fill-palette-color="primary"></path><path d="M10.709 187.661l-2.444-7.629 18.027-5.774 2.334 7.285c0.602 1.879 0.614 3.369 0.035 4.471-0.576 1.108-1.617 1.904-3.122 2.386v0c-0.694 0.222-1.341 0.321-1.94 0.296-0.593-0.027-1.124-0.163-1.593-0.41-0.464-0.255-0.847-0.627-1.148-1.115v0c0.032 0.416-0.003 0.846-0.106 1.29-0.097 0.442-0.286 0.864-0.569 1.264-0.283 0.401-0.65 0.764-1.102 1.09-0.445 0.323-0.992 0.588-1.64 0.795v0c-1.198 0.384-2.229 0.487-3.095 0.31-0.859-0.18-1.585-0.633-2.178-1.36-0.585-0.722-1.071-1.689-1.459-2.899zM17.191 181.806l-3.819 1.224 1.057 3.299c0.115 0.36 0.288 0.64 0.518 0.841 0.224 0.203 0.497 0.324 0.82 0.365 0.33 0.039 0.711-0.011 1.143-0.15v0c0.393-0.126 0.705-0.301 0.936-0.527 0.231-0.226 0.383-0.483 0.456-0.774 0.08-0.293 0.062-0.619-0.054-0.979v0zM23.868 179.668l-3.495 1.119 0.987 3.083c0.134 0.419 0.406 0.693 0.815 0.822 0.403 0.131 0.856 0.116 1.361-0.046v0c0.661-0.212 1.075-0.496 1.242-0.853 0.161-0.355 0.184-0.709 0.071-1.062v0z" fill="#000000" data-fill-palette-color="primary"></path><path d="M16.233 201.202l-2.028-4.058 19.51-3.305 2.46 4.925-14.357 13.616-2.041-4.086 2.647-2.406-2.687-5.377zM31.546 197.965l-7.82 1.694 1.774 3.551z" fill="#000000" data-fill-palette-color="primary"></path><path d="M26.905 220.111l-2.505-3.633 15.584-10.744 4.518 6.552c0.453 0.656 0.788 1.318 1.006 1.987 0.22 0.658 0.28 1.326 0.181 2.004-0.1 0.678-0.401 1.362-0.904 2.051-0.496 0.685-1.248 1.374-2.255 2.068v0c-0.685 0.472-1.313 0.814-1.886 1.025-0.567 0.207-1.088 0.316-1.565 0.328-0.473 0.017-0.907-0.038-1.304-0.166-0.397-0.127-0.776-0.283-1.137-0.468v0l-4.203 7.018-2.546-3.693 3.934-6.156c-0.098-0.141-0.204-0.302-0.319-0.481-0.11-0.183-0.221-0.357-0.335-0.521-0.117-0.17-0.236-0.342-0.357-0.517-0.121-0.175-0.234-0.34-0.339-0.493v0zM39.23 211.614l-3.888 2.68 1.563 2.266c0.176 0.255 0.364 0.455 0.564 0.601 0.199 0.155 0.426 0.249 0.682 0.281 0.258 0.023 0.536-0.015 0.836-0.113 0.301-0.108 0.639-0.29 1.013-0.548v0c0.379-0.261 0.67-0.512 0.871-0.752 0.193-0.241 0.307-0.475 0.344-0.7 0.038-0.235 0.02-0.473-0.054-0.714-0.07-0.235-0.193-0.48-0.369-0.735v0z" fill="#000000" data-fill-palette-color="primary"></path><path d="M41.183 237.863l-5.42-5.899 13.94-12.806 5.176 5.633c1.335 1.453 1.971 2.8 1.908 4.043-0.058 1.248-0.669 2.406-1.833 3.476v0c-0.537 0.493-1.082 0.854-1.636 1.084-0.549 0.225-1.089 0.324-1.618 0.296-0.529-0.037-1.032-0.214-1.51-0.531v0c0.203 0.364 0.352 0.769 0.445 1.216 0.098 0.442 0.103 0.904 0.014 1.387-0.089 0.483-0.27 0.966-0.543 1.45-0.268 0.48-0.653 0.95-1.155 1.411v0c-0.926 0.851-1.819 1.377-2.679 1.579-0.855 0.197-1.704 0.091-2.548-0.319-0.834-0.41-1.681-1.083-2.541-2.02zM44.61 229.829l-2.953 2.713 2.343 2.551c0.256 0.278 0.53 0.46 0.824 0.546 0.288 0.09 0.587 0.086 0.898-0.013 0.316-0.103 0.641-0.309 0.974-0.616v0c0.304-0.279 0.513-0.569 0.628-0.871 0.115-0.302 0.145-0.6 0.089-0.893-0.051-0.299-0.204-0.588-0.459-0.866v0zM49.773 225.086l-2.703 2.483 2.19 2.384c0.298 0.324 0.659 0.458 1.085 0.403 0.42-0.05 0.826-0.254 1.215-0.612v0c0.511-0.47 0.768-0.901 0.77-1.296-0.003-0.389-0.13-0.721-0.381-0.994v0z" fill="#000000" data-fill-palette-color="primary"></path><path d="M52.824 248.917v0c-0.313-0.258-0.653-0.597-1.019-1.016-0.377-0.418-0.671-0.898-0.884-1.439-0.213-0.541-0.265-1.146-0.159-1.816 0.112-0.665 0.488-1.384 1.127-2.158v0l6.481-7.846c0.565-0.684 1.144-1.164 1.738-1.439 0.598-0.282 1.169-0.412 1.713-0.391 0.544 0.021 1.071 0.149 1.582 0.384 0.515 0.229 0.968 0.506 1.36 0.83v0c1.049 0.867 1.945 1.638 2.689 2.314 0.747 0.671 1.4 1.268 1.957 1.791 0.559 0.533 1.058 1.012 1.5 1.439v0l-2.371 2.87-5.349-4.419c-0.355-0.293-0.698-0.439-1.031-0.437-0.332 0.002-0.644 0.181-0.937 0.536v0l-1.333 1.614 5.351 4.741-2.213 2.679-5.653-4.376-1.267 1.535c-0.241 0.291-0.382 0.554-0.423 0.787-0.04 0.243-0.016 0.468 0.071 0.674 0.093 0.211 0.233 0.393 0.419 0.546v0l5.445 4.498-2.358 2.854c-0.63-0.414-1.322-0.887-2.076-1.421-0.749-0.529-1.497-1.085-2.246-1.668-0.739-0.584-1.444-1.139-2.114-1.666z" fill="#000000" data-fill-palette-color="primary"></path><path d="M66.633 258.687l-3.891-2.332 14.675-13.274 4.722 2.831-4.788 19.199-3.918-2.348 0.939-3.452-5.155-3.09zM77.806 247.726l-5.684 5.633 3.405 2.04z" fill="#000000" data-fill-palette-color="primary"></path><path d="M85.795 268.897l-4.065-1.717 7.367-17.437 7.332 3.097c0.734 0.31 1.373 0.688 1.916 1.134 0.539 0.437 0.949 0.968 1.23 1.594 0.28 0.626 0.394 1.364 0.34 2.215-0.051 0.844-0.314 1.83-0.79 2.956v0c-0.324 0.766-0.67 1.392-1.04 1.878-0.367 0.479-0.748 0.852-1.143 1.117-0.389 0.268-0.786 0.455-1.189 0.562-0.403 0.106-0.806 0.178-1.21 0.216v0l0.227 8.177-4.131-1.746 0.008-7.305c-0.158-0.067-0.334-0.145-0.528-0.234-0.191-0.096-0.378-0.182-0.561-0.26-0.19-0.08-0.383-0.162-0.58-0.244-0.196-0.083-0.38-0.161-0.55-0.233v0zM91.622 255.107l-1.838 4.35 2.536 1.071c0.285 0.12 0.551 0.188 0.798 0.203 0.251 0.024 0.493-0.019 0.726-0.13 0.23-0.119 0.444-0.301 0.645-0.544 0.196-0.253 0.383-0.588 0.559-1.006v0c0.179-0.424 0.29-0.792 0.331-1.103 0.033-0.307 0.004-0.565-0.086-0.775-0.094-0.219-0.237-0.41-0.43-0.573-0.186-0.161-0.421-0.301-0.706-0.422v0z" fill="#000000" data-fill-palette-color="primary"></path><path d="M103.604 275.403l-4.221-1.289 5.529-18.104 4.22 1.289z" fill="#000000" data-fill-palette-color="primary"></path><path d="M112.644 277.304l-4.468-0.787 8.96-17.642 5.422 0.955 2.392 19.642-4.498-0.793-0.357-3.559-5.919-1.043zM119.16 263.073l-3.294 7.292 3.909 0.689z" fill="#000000" data-fill-palette-color="primary"></path><path d="M148.892 279.763l-5.5 0.237-6.573-18.664 4.563-0.196 4.575 13.971 3.367-14.313 4.512-0.195z" fill="#000000" data-fill-palette-color="primary"></path><path d="M161.819 278.316l-4.457 0.847 2.132-19.673 5.409-1.026 9.192 17.522-4.487 0.852-1.594-3.203-5.906 1.121zM162.874 262.7l-0.499 7.987 3.9-0.741z" fill="#000000" data-fill-palette-color="primary"></path><path d="M182.987 273.146l-4.152 1.432-6.17-17.895 3.304-1.14 10.586 8.467-3.734-10.829 4.172-1.439 6.17 17.896-3.333 1.149-10.567-8.44z" fill="#000000" data-fill-palette-color="primary"></path><path d="M203.375 264.638v0c-1.039 0.549-2.001 0.789-2.885 0.719-0.878-0.073-1.703-0.391-2.475-0.954-0.772-0.564-1.502-1.321-2.19-2.271-0.698-0.953-1.368-2.037-2.01-3.253v0c-0.693-1.313-1.233-2.54-1.618-3.681-0.379-1.145-0.54-2.206-0.481-3.186 0.055-0.985 0.397-1.897 1.027-2.734 0.621-0.841 1.594-1.611 2.919-2.312v0c0.827-0.437 1.577-0.79 2.25-1.06 0.673-0.27 1.325-0.494 1.954-0.671 0.623-0.174 1.27-0.34 1.94-0.499v0l1.594 3.017c-0.357 0.134-0.803 0.312-1.34 0.533-0.533 0.227-1.128 0.491-1.785 0.791-0.657 0.301-1.339 0.637-2.044 1.01v0c-0.906 0.478-1.508 0.987-1.806 1.525-0.301 0.548-0.331 1.228-0.088 2.041 0.236 0.816 0.697 1.871 1.38 3.165v0c0.53 1.003 1.004 1.798 1.423 2.385 0.413 0.59 0.81 1.01 1.19 1.26 0.384 0.256 0.775 0.364 1.174 0.324 0.393-0.036 0.814-0.173 1.264-0.411v0c0.583-0.308 1.102-0.629 1.556-0.961 0.444-0.336 0.79-0.616 1.037-0.84v0l-1.406-2.662-2.634 1.392-1.633-3.091c0.306-0.216 0.672-0.456 1.1-0.721 0.428-0.265 0.881-0.539 1.361-0.823 0.473-0.281 0.914-0.529 1.321-0.744v0c0.523-0.276 0.988-0.514 1.395-0.714 0.404-0.206 0.779-0.38 1.123-0.523v0l5.133 9.718-2.936 1.551-1.116-0.856c-0.266 0.467-0.713 1.049-1.34 1.745-0.621 0.693-1.406 1.29-2.354 1.791z" fill="#000000" data-fill-palette-color="primary"></path><path d="M222.157 252.763v0c-0.846 0.624-1.684 1.139-2.512 1.545-0.838 0.404-1.673 0.627-2.505 0.668-0.832 0.041-1.648-0.156-2.447-0.591-0.799-0.435-1.583-1.173-2.349-2.212v0l-7.57-10.264 3.551-2.62 7.558 10.248c0.335 0.454 0.703 0.745 1.106 0.875 0.407 0.135 0.846 0.128 1.316-0.023 0.474-0.145 0.977-0.413 1.508-0.804v0c0.52-0.384 0.919-0.78 1.197-1.191 0.288-0.409 0.425-0.826 0.41-1.25-0.005-0.423-0.175-0.862-0.509-1.316v0l-7.558-10.247 3.552-2.619 7.57 10.264c0.767 1.04 1.243 2.004 1.428 2.892 0.18 0.892 0.124 1.732-0.167 2.518-0.285 0.783-0.739 1.51-1.362 2.183-0.627 0.667-1.366 1.315-2.217 1.944z" fill="#000000" data-fill-palette-color="primary"></path><path d="M234.221 242.353l-3.197 3.219-9.37-17.428 3.88-3.907 17.492 9.25-3.218 3.241-3.126-1.739-4.236 4.265zM226.257 228.879l4.106 6.868 2.798-2.817z" fill="#000000" data-fill-palette-color="primary"></path><path d="M248.725 226.193l-2.641 3.536-15.166-11.328 4.763-6.377c0.477-0.639 0.997-1.168 1.56-1.589 0.553-0.419 1.167-0.69 1.841-0.812 0.675-0.122 1.419-0.056 2.232 0.2 0.807 0.251 1.701 0.743 2.681 1.475v0c0.666 0.498 1.191 0.984 1.575 1.459 0.378 0.471 0.648 0.93 0.811 1.378 0.167 0.442 0.254 0.872 0.26 1.288 0.006 0.417-0.02 0.826-0.08 1.227v0l7.994 1.737-2.684 3.593-7.09-1.757c-0.103 0.138-0.221 0.29-0.354 0.457-0.139 0.162-0.267 0.324-0.387 0.483-0.123 0.165-0.249 0.333-0.376 0.504-0.128 0.171-0.247 0.33-0.358 0.479v0zM236.73 217.235l3.784 2.826 1.647-2.206c0.185-0.248 0.315-0.49 0.388-0.727 0.083-0.238 0.099-0.483 0.048-0.736-0.061-0.251-0.186-0.503-0.374-0.756-0.198-0.251-0.479-0.512-0.843-0.784v0c-0.369-0.276-0.699-0.471-0.991-0.585-0.29-0.105-0.548-0.139-0.774-0.102-0.235 0.039-0.455 0.132-0.659 0.28-0.2 0.142-0.393 0.337-0.578 0.584v0z" fill="#000000" data-fill-palette-color="primary"></path><path d="M261.038 206.788l-3.91 7.192-16.63-9.042 3.91-7.191c0.64-1.178 1.377-2.029 2.21-2.554 0.827-0.528 1.738-0.815 2.733-0.861 0.986-0.043 2.036 0.125 3.152 0.505 1.113 0.37 2.267 0.881 3.463 1.53v0c1.908 1.037 3.354 2.105 4.338 3.204 0.987 1.092 1.535 2.235 1.644 3.429 0.116 1.197-0.188 2.46-0.91 3.788zM246.084 202.953l9.683 5.264 1.595-2.934c0.332-0.61 0.422-1.187 0.272-1.73-0.154-0.537-0.547-1.08-1.181-1.628-0.633-0.548-1.493-1.117-2.58-1.708v0c-1.033-0.561-1.9-0.959-2.602-1.192-0.705-0.243-1.281-0.349-1.729-0.318-0.453 0.027-0.823 0.155-1.111 0.382-0.291 0.233-0.542 0.543-0.752 0.929v0z" fill="#000000" data-fill-palette-color="primary"></path><path d="M267.384 192.689l-1.518 4.275-15.909-11.765 1.842-5.189 19.767 0.904-1.529 4.304-3.569-0.239-2.012 5.664zM254.433 183.9l6.644 4.46 1.328-3.741z" fill="#000000" data-fill-palette-color="primary"></path><path d="M2.794 142.726c0-4.03 3.267-7.296 7.296-7.297 4.03 0 7.296 3.267 7.296 7.297 0 4.03-3.267 7.296-7.296 7.296-4.03 0-7.296-3.267-7.296-7.296z" fill="#000000" data-fill-palette-color="primary"></path><path d="M262.614 142.726c0-4.03 3.267-7.296 7.296-7.297 4.03 0 7.296 3.267 7.296 7.297 0 4.03-3.267 7.296-7.296 7.296-4.03 0-7.296-3.267-7.296-7.296z" fill="#000000" data-fill-palette-color="primary"></path></g></svg></g></svg></g></svg></g></svg></g><defs></defs></svg><rect width="280" height="280" fill="none" stroke="none" visibility="hidden"></rect></g></svg></g></svg>