<svg width="392" height="32" viewBox="0 0 392 32" fill="none" xmlns="http://www.w3.org/2000/svg">
<path d="M1.57676 15.7684C1.57676 23.6062 7.93071 29.9599 15.7684 29.9599C23.6061 29.9599 29.96 23.6062 29.96 15.7684C29.96 7.93055 23.6061 1.57693 15.7684 1.57693C7.93071 1.57693 1.57676 7.93055 1.57676 15.7684ZM0 15.7684C0 7.05982 7.05969 0 15.7684 0C24.4771 0 31.5368 7.05982 31.5368 15.7684C31.5368 24.4768 24.4771 31.5368 15.7684 31.5368C7.05969 31.5368 0 24.4768 0 15.7684Z" fill="black"/>
<path d="M44.211 15.7684C44.211 22.9243 50.012 28.7261 57.1684 28.7261C64.3248 28.7261 70.1258 22.9243 70.1258 15.7684C70.1258 8.61232 64.3248 2.81053 57.1684 2.81053C50.012 2.81053 44.211 8.61232 44.211 15.7684ZM42.7711 15.7684C42.7711 7.81715 49.2171 1.37105 57.1684 1.37105C65.1197 1.37105 71.5657 7.81715 71.5657 15.7684C71.5657 23.7196 65.1197 30.1656 57.1684 30.1656C49.2171 30.1656 42.7711 23.7196 42.7711 15.7684Z" fill="black"/>
<path d="M86.8452 15.7684C86.8452 22.2433 92.0938 27.4915 98.5684 27.4915C105.043 27.4915 110.292 22.2433 110.292 15.7684C110.292 9.29335 105.043 4.04507 98.5684 4.04507C92.0938 4.04507 86.8452 9.29335 86.8452 15.7684ZM85.5423 15.7684C85.5423 8.57431 91.3743 2.74225 98.5684 2.74225C105.762 2.74225 111.594 8.57431 111.594 15.7684C111.594 22.9625 105.762 28.7945 98.5684 28.7945C91.3743 28.7945 85.5423 22.9625 85.5423 15.7684Z" fill="black"/>
<path d="M129.479 15.7684C129.479 21.5615 134.175 26.258 139.968 26.258C145.761 26.258 150.458 21.5615 150.458 15.7684C150.458 9.97529 145.761 5.27883 139.968 5.27883C134.175 5.27883 129.479 9.97529 129.479 15.7684ZM128.313 15.7684C128.313 9.33152 133.532 4.11346 139.968 4.11346C146.405 4.11346 151.623 9.33152 151.623 15.7684C151.623 22.2053 146.405 27.4233 139.968 27.4233C133.532 27.4233 128.313 22.2053 128.313 15.7684Z" fill="black"/>
<path d="M172.113 15.7684C172.113 20.88 176.257 25.0237 181.368 25.0237C186.48 25.0237 190.624 20.88 190.624 15.7684C190.624 10.6568 186.48 6.51289 181.368 6.51289C176.257 6.51289 172.113 10.6568 172.113 15.7684ZM171.085 15.7684C171.085 10.0887 175.689 5.48455 181.368 5.48455C187.048 5.48455 191.652 10.0887 191.652 15.7684C191.652 21.4479 187.048 26.0521 181.368 26.0521C175.689 26.0521 171.085 21.4479 171.085 15.7684Z" fill="black"/>
<path d="M214.747 15.7684C214.747 20.1982 218.339 23.7896 222.768 23.7896C227.198 23.7896 230.79 20.1982 230.79 15.7684C230.79 11.3386 227.198 7.74714 222.768 7.74714C218.339 7.74714 214.747 11.3386 214.747 15.7684ZM213.856 15.7684C213.856 10.8458 217.846 6.85576 222.768 6.85576C227.691 6.85576 231.681 10.8458 231.681 15.7684C231.681 20.6908 227.691 24.681 222.768 24.681C217.846 24.681 213.856 20.6908 213.856 15.7684Z" fill="black"/>
<path d="M257.381 15.7684C257.381 19.5172 260.42 22.5559 264.168 22.5559C267.917 22.5559 270.956 19.5172 270.956 15.7684C270.956 12.0196 267.917 8.98091 264.168 8.98091C260.42 8.98091 257.381 12.0196 257.381 15.7684ZM256.627 15.7684C256.627 11.6032 260.003 8.22697 264.168 8.22697C268.334 8.22697 271.71 11.6032 271.71 15.7684C271.71 19.9336 268.334 23.3098 264.168 23.3098C260.003 23.3098 256.627 19.9336 256.627 15.7684Z" fill="black"/>
<path d="M300.015 15.7684C300.015 18.8352 302.501 21.3218 305.568 21.3218C308.635 21.3218 311.122 18.8352 311.122 15.7684C311.122 12.7014 308.635 10.215 305.568 10.215C302.501 10.215 300.015 12.7014 300.015 15.7684ZM299.398 15.7684C299.398 12.3606 302.161 9.59818 305.568 9.59818C308.976 9.59818 311.739 12.3606 311.739 15.7684C311.739 19.176 308.976 21.9386 305.568 21.9386C302.161 21.9386 299.398 19.176 299.398 15.7684Z" fill="black"/>
<path d="M342.649 15.7684C342.649 18.1539 344.583 20.0876 346.968 20.0876C349.354 20.0876 351.288 18.1539 351.288 15.7684C351.288 13.3829 349.354 11.449 346.968 11.449C344.583 11.449 342.649 13.3829 342.649 15.7684ZM342.169 15.7684C342.169 13.118 344.318 10.9692 346.968 10.9692C349.619 10.9692 351.767 13.118 351.767 15.7684C351.767 18.4188 349.619 20.5674 346.968 20.5674C344.318 20.5674 342.169 18.4188 342.169 15.7684Z" fill="black"/>
<path d="M385.283 15.7684C385.283 17.4719 386.665 18.8535 388.368 18.8535C390.072 18.8535 391.454 17.4719 391.454 15.7684C391.454 14.0647 390.072 12.6833 388.368 12.6833C386.665 12.6833 385.283 14.0647 385.283 15.7684ZM384.94 15.7684C384.94 13.8752 386.475 12.3404 388.368 12.3404C390.262 12.3404 391.796 13.8752 391.796 15.7684C391.796 17.6616 390.262 19.1964 388.368 19.1964C386.475 19.1964 384.94 17.6616 384.94 15.7684Z" fill="black"/>
</svg>
